<svg width="1361" height="317" viewBox="0 0 1361 317" fill="none" xmlns="http://www.w3.org/2000/svg">
<path d="M13.24 31V0.0399981H16.88V18.28L16.8 17.6C17.36 16.5067 18.2133 15.6 19.36 14.88C20.5333 14.16 21.9067 13.8 23.48 13.8C25.0533 13.8 26.3333 14.2667 27.32 15.2C28.3333 16.1067 28.8533 17.2933 28.88 18.76V31H25.12V20.08C25.0933 19.1733 24.8267 18.44 24.32 17.88C23.84 17.2933 23.08 17 22.04 17C21.08 17 20.2133 17.28 19.44 17.84C18.6667 18.3733 18.0533 19.1067 17.6 20.04C17.1733 20.9733 16.96 22.04 16.96 23.24V31H13.24ZM43.0294 31.4C41.136 31.4 39.5094 31.0267 38.1494 30.28C36.7894 29.5067 35.736 28.4667 34.9894 27.16C34.2694 25.8267 33.9094 24.3067 33.9094 22.6C33.9094 20.9733 34.3227 19.4933 35.1494 18.16C35.976 16.8267 37.0827 15.76 38.4694 14.96C39.856 14.16 41.4027 13.76 43.1094 13.76C45.296 13.76 47.1094 14.4 48.5494 15.68C49.9894 16.96 50.9627 18.72 51.4694 20.96L37.8294 25.76L36.9494 23.56L48.1494 19.48L47.3494 20C47.0294 19.12 46.496 18.36 45.7494 17.72C45.0027 17.0533 44.0294 16.72 42.8294 16.72C41.816 16.72 40.9094 16.9733 40.1094 17.48C39.3094 17.96 38.6827 18.6267 38.2294 19.48C37.776 20.3333 37.5494 21.3067 37.5494 22.4C37.5494 23.5467 37.7894 24.56 38.2694 25.44C38.7494 26.2933 39.4027 26.9733 40.2294 27.48C41.0827 27.96 42.0427 28.2 43.1094 28.2C43.8294 28.2 44.5227 28.0667 45.1894 27.8C45.8827 27.5333 46.5227 27.1867 47.1094 26.76L48.8294 29.52C48.0027 30.08 47.0694 30.5333 46.0294 30.88C45.016 31.2267 44.016 31.4 43.0294 31.4ZM56.1306 0.0399981H59.8506V31H56.1306V0.0399981ZM66.2869 0.0399981H70.0069V31H66.2869V0.0399981ZM75.0031 22.56C75.0031 20.9067 75.3898 19.4133 76.1631 18.08C76.9631 16.7467 78.0565 15.6933 79.4431 14.92C80.8298 14.1467 82.4031 13.76 84.1631 13.76C85.9765 13.76 87.5631 14.1467 88.9231 14.92C90.2831 15.6933 91.3365 16.7467 92.0831 18.08C92.8298 19.4133 93.2031 20.9067 93.2031 22.56C93.2031 24.2133 92.8298 25.72 92.0831 27.08C91.3365 28.4133 90.2698 29.4667 88.8831 30.24C87.5231 31.0133 85.9365 31.4 84.1231 31.4C82.3631 31.4 80.7898 31.04 79.4031 30.32C78.0431 29.5733 76.9631 28.5467 76.1631 27.24C75.3898 25.9067 75.0031 24.3467 75.0031 22.56ZM78.7231 22.6C78.7231 23.6667 78.9631 24.64 79.4431 25.52C79.9231 26.3733 80.5631 27.0533 81.3631 27.56C82.1898 28.0667 83.0965 28.32 84.0831 28.32C85.1231 28.32 86.0431 28.0667 86.8431 27.56C87.6698 27.0533 88.3098 26.3733 88.7631 25.52C89.2165 24.64 89.4431 23.6667 89.4431 22.6C89.4431 21.5333 89.2165 20.5733 88.7631 19.72C88.3098 18.84 87.6698 18.1467 86.8431 17.64C86.0431 17.1067 85.1231 16.84 84.0831 16.84C83.0698 16.84 82.1498 17.1067 81.3231 17.64C80.5231 18.1733 79.8831 18.88 79.4031 19.76C78.9498 20.6133 78.7231 21.56 78.7231 22.6ZM112.496 7.16H116.216V14.52H120.776V17.44H116.216V31H112.496V17.44H109.456V14.52H112.496V7.16ZM125.271 31V0.0399981H128.911V18.28L128.831 17.6C129.391 16.5067 130.245 15.6 131.391 14.88C132.565 14.16 133.938 13.8 135.511 13.8C137.085 13.8 138.365 14.2667 139.351 15.2C140.365 16.1067 140.885 17.2933 140.911 18.76V31H137.151V20.08C137.125 19.1733 136.858 18.44 136.351 17.88C135.871 17.2933 135.111 17 134.071 17C133.111 17 132.245 17.28 131.471 17.84C130.698 18.3733 130.085 19.1067 129.631 20.04C129.205 20.9733 128.991 22.04 128.991 23.24V31H125.271ZM155.061 31.4C153.167 31.4 151.541 31.0267 150.181 30.28C148.821 29.5067 147.767 28.4667 147.021 27.16C146.301 25.8267 145.941 24.3067 145.941 22.6C145.941 20.9733 146.354 19.4933 147.181 18.16C148.007 16.8267 149.114 15.76 150.501 14.96C151.887 14.16 153.434 13.76 155.141 13.76C157.327 13.76 159.141 14.4 160.581 15.68C162.021 16.96 162.994 18.72 163.501 20.96L149.861 25.76L148.981 23.56L160.181 19.48L159.381 20C159.061 19.12 158.527 18.36 157.781 17.72C157.034 17.0533 156.061 16.72 154.861 16.72C153.847 16.72 152.941 16.9733 152.141 17.48C151.341 17.96 150.714 18.6267 150.261 19.48C149.807 20.3333 149.581 21.3067 149.581 22.4C149.581 23.5467 149.821 24.56 150.301 25.44C150.781 26.2933 151.434 26.9733 152.261 27.48C153.114 27.96 154.074 28.2 155.141 28.2C155.861 28.2 156.554 28.0667 157.221 27.8C157.914 27.5333 158.554 27.1867 159.141 26.76L160.861 29.52C160.034 30.08 159.101 30.5333 158.061 30.88C157.047 31.2267 156.047 31.4 155.061 31.4ZM171.482 14.44L171.842 19.24L171.642 18.6C172.069 17.5867 172.682 16.7333 173.482 16.04C174.309 15.32 175.162 14.7733 176.042 14.4C176.949 14 177.735 13.8 178.402 13.8L178.202 17.48C176.949 17.4 175.842 17.64 174.882 18.2C173.949 18.76 173.202 19.5067 172.642 20.44C172.109 21.3733 171.842 22.3733 171.842 23.44V31H168.162V14.44H171.482ZM190.178 31.4C188.284 31.4 186.658 31.0267 185.298 30.28C183.938 29.5067 182.884 28.4667 182.138 27.16C181.418 25.8267 181.058 24.3067 181.058 22.6C181.058 20.9733 181.471 19.4933 182.298 18.16C183.124 16.8267 184.231 15.76 185.618 14.96C187.004 14.16 188.551 13.76 190.258 13.76C192.444 13.76 194.258 14.4 195.698 15.68C197.138 16.96 198.111 18.72 198.618 20.96L184.978 25.76L184.098 23.56L195.298 19.48L194.498 20C194.178 19.12 193.644 18.36 192.898 17.72C192.151 17.0533 191.178 16.72 189.978 16.72C188.964 16.72 188.058 16.9733 187.258 17.48C186.458 17.96 185.831 18.6267 185.378 19.48C184.924 20.3333 184.698 21.3067 184.698 22.4C184.698 23.5467 184.938 24.56 185.418 25.44C185.898 26.2933 186.551 26.9733 187.378 27.48C188.231 27.96 189.191 28.2 190.258 28.2C190.978 28.2 191.671 28.0667 192.338 27.8C193.031 27.5333 193.671 27.1867 194.258 26.76L195.978 29.52C195.151 30.08 194.218 30.5333 193.178 30.88C192.164 31.2267 191.164 31.4 190.178 31.4ZM202.319 0.639997H205.679V23.52H202.319V0.639997ZM204.119 30.84C203.426 30.84 202.852 30.64 202.399 30.24C201.946 29.84 201.719 29.3333 201.719 28.72C201.719 28.1067 201.946 27.6 202.399 27.2C202.852 26.7733 203.426 26.56 204.119 26.56C204.786 26.56 205.332 26.7733 205.759 27.2C206.212 27.6 206.439 28.1067 206.439 28.72C206.439 29.3333 206.212 29.84 205.759 30.24C205.332 30.64 204.786 30.84 204.119 30.84Z" fill="white"/>
<mask id="path-2-outside-1_229_222" maskUnits="userSpaceOnUse" x="18" y="46" width="620" height="118" fill="black">
<rect fill="white" x="18" y="46" width="620" height="118"/>
<path d="M20.368 94.008H32.272V147H20.368V94.008ZM19.472 74.808C19.472 72.9307 20.1973 71.352 21.648 70.072C23.184 68.792 24.848 68.152 26.64 68.152C28.432 68.152 30.0107 68.792 31.376 70.072C32.8267 71.352 33.552 72.9307 33.552 74.808C33.552 76.7707 32.8267 78.392 31.376 79.672C30.0107 80.8667 28.432 81.464 26.64 81.464C24.848 81.464 23.184 80.824 21.648 79.544C20.1973 78.264 19.472 76.6853 19.472 74.808ZM52.996 74.808L46.98 71.736C48.772 70.0293 50.18 67.6827 51.204 64.696C52.3133 61.7093 52.5693 58.7227 51.972 55.736L61.444 54.84C61.956 57.2293 61.8707 59.7467 61.188 62.392C60.5053 64.952 59.4387 67.3413 57.988 69.56C56.5373 71.7787 54.8733 73.528 52.996 74.808ZM87.117 94.008L88.141 105.912L87.629 104.888C89.5917 100.877 92.365 97.72 95.949 95.416C99.6183 93.112 103.8 91.96 108.493 91.96C111.48 91.96 114.125 92.4293 116.429 93.368C118.733 94.3067 120.61 95.672 122.061 97.464C123.597 99.1707 124.578 101.304 125.005 103.864L124.365 104.248C126.413 100.408 129.229 97.4213 132.813 95.288C136.482 93.0693 140.322 91.96 144.333 91.96C149.538 91.96 153.634 93.4533 156.621 96.44C159.693 99.3413 161.272 103.139 161.357 107.832V147H149.453V112.056C149.368 109.325 148.685 107.064 147.405 105.272C146.21 103.395 144.077 102.371 141.005 102.2C137.933 102.2 135.16 103.139 132.685 105.016C130.296 106.893 128.418 109.325 127.053 112.312C125.688 115.213 124.962 118.371 124.877 121.784V147H112.973V112.056C112.888 109.325 112.162 107.064 110.797 105.272C109.517 103.395 107.341 102.371 104.269 102.2C101.112 102.2 98.3383 103.139 95.949 105.016C93.5597 106.893 91.6823 109.325 90.317 112.312C89.037 115.299 88.397 118.499 88.397 121.912V147H76.493V94.008H87.117ZM265.626 142.136C263.237 144.013 260.378 145.507 257.05 146.616C253.722 147.725 250.394 148.28 247.066 148.28C241.263 148.28 236.186 147.128 231.834 144.824C227.482 142.52 224.069 139.32 221.594 135.224C219.205 131.043 218.01 126.136 218.01 120.504C218.01 114.872 219.29 109.965 221.85 105.784C224.495 101.603 227.909 98.4027 232.09 96.184C236.357 93.88 240.922 92.728 245.786 92.728C250.053 92.728 253.85 93.3253 257.178 94.52C260.591 95.7147 263.493 97.336 265.882 99.384L259.994 107.064C258.458 105.869 256.581 104.803 254.362 103.864C252.143 102.925 249.626 102.456 246.81 102.456C243.738 102.456 240.879 103.267 238.234 104.888C235.674 106.424 233.626 108.557 232.09 111.288C230.639 114.019 229.914 117.091 229.914 120.504C229.914 123.747 230.682 126.776 232.218 129.592C233.754 132.323 235.887 134.499 238.618 136.12C241.349 137.656 244.463 138.424 247.962 138.424C250.266 138.424 252.357 138.083 254.234 137.4C256.197 136.717 257.946 135.779 259.482 134.584L265.626 142.136ZM303.009 148.28C298.06 148.28 293.537 147.213 289.441 145.08C285.43 142.947 282.23 139.832 279.841 135.736C277.537 131.555 276.385 126.477 276.385 120.504C276.385 114.616 277.622 109.539 280.097 105.272C282.572 100.92 285.857 97.592 289.953 95.288C294.134 92.984 298.7 91.832 303.649 91.832C308.598 91.832 312.78 92.984 316.193 95.288C319.606 97.5067 322.209 100.152 324.001 103.224L323.233 105.272L324.385 94.008H335.393V147H323.489V133.176L324.769 136.248C324.428 137.101 323.66 138.211 322.465 139.576C321.356 140.856 319.82 142.179 317.857 143.544C315.98 144.909 313.804 146.061 311.329 147C308.854 147.853 306.081 148.28 303.009 148.28ZM306.209 138.424C309.196 138.424 311.884 137.869 314.273 136.76C316.662 135.651 318.625 134.115 320.161 132.152C321.782 130.104 322.892 127.672 323.489 124.856V114.488C322.806 111.928 321.612 109.709 319.905 107.832C318.198 105.869 316.15 104.376 313.761 103.352C311.372 102.243 308.726 101.688 305.825 101.688C302.668 101.688 299.766 102.456 297.121 103.992C294.476 105.528 292.342 107.661 290.721 110.392C289.185 113.123 288.417 116.323 288.417 119.992C288.417 123.405 289.228 126.52 290.849 129.336C292.47 132.152 294.646 134.371 297.377 135.992C300.108 137.613 303.052 138.424 306.209 138.424ZM366.617 94.008L367.641 105.912L367.129 104.888C369.092 100.877 371.865 97.72 375.449 95.416C379.118 93.112 383.3 91.96 387.993 91.96C390.98 91.96 393.625 92.4293 395.929 93.368C398.233 94.3067 400.11 95.672 401.561 97.464C403.097 99.1707 404.078 101.304 404.505 103.864L403.865 104.248C405.913 100.408 408.729 97.4213 412.313 95.288C415.982 93.0693 419.822 91.96 423.833 91.96C429.038 91.96 433.134 93.4533 436.121 96.44C439.193 99.3413 440.772 103.139 440.857 107.832V147H428.953V112.056C428.868 109.325 428.185 107.064 426.905 105.272C425.71 103.395 423.577 102.371 420.505 102.2C417.433 102.2 414.66 103.139 412.185 105.016C409.796 106.893 407.918 109.325 406.553 112.312C405.188 115.213 404.462 118.371 404.377 121.784V147H392.473V112.056C392.388 109.325 391.662 107.064 390.297 105.272C389.017 103.395 386.841 102.371 383.769 102.2C380.612 102.2 377.838 103.139 375.449 105.016C373.06 106.893 371.182 109.325 369.817 112.312C368.537 115.299 367.897 118.499 367.897 121.912V147H355.993V94.008H366.617ZM461.618 94.008H473.522V147H461.618V94.008ZM460.722 74.808C460.722 72.9307 461.447 71.352 462.898 70.072C464.434 68.792 466.098 68.152 467.89 68.152C469.682 68.152 471.261 68.792 472.626 70.072C474.077 71.352 474.802 72.9307 474.802 74.808C474.802 76.7707 474.077 78.392 472.626 79.672C471.261 80.8667 469.682 81.464 467.89 81.464C466.098 81.464 464.434 80.824 462.898 79.544C461.447 78.264 460.722 76.6853 460.722 74.808ZM494.118 47.928H506.022V147H494.118V47.928ZM526.618 47.928H538.522V147H526.618V47.928ZM583.694 148.28C577.635 148.28 572.43 147.085 568.078 144.696C563.726 142.221 560.355 138.893 557.966 134.712C555.662 130.445 554.51 125.581 554.51 120.12C554.51 114.915 555.833 110.179 558.478 105.912C561.123 101.645 564.665 98.232 569.102 95.672C573.539 93.112 578.489 91.832 583.95 91.832C590.947 91.832 596.75 93.88 601.358 97.976C605.966 102.072 609.081 107.704 610.702 114.872L567.054 130.232L564.238 123.192L600.078 110.136L597.518 111.8C596.494 108.984 594.787 106.552 592.398 104.504C590.009 102.371 586.894 101.304 583.054 101.304C579.811 101.304 576.91 102.115 574.35 103.736C571.79 105.272 569.785 107.405 568.334 110.136C566.883 112.867 566.158 115.981 566.158 119.48C566.158 123.149 566.926 126.392 568.462 129.208C569.998 131.939 572.089 134.115 574.734 135.736C577.465 137.272 580.537 138.04 583.95 138.04C586.254 138.04 588.473 137.613 590.606 136.76C592.825 135.907 594.873 134.797 596.75 133.432L602.254 142.264C599.609 144.056 596.622 145.507 593.294 146.616C590.051 147.725 586.851 148.28 583.694 148.28ZM636.37 135.864C634.493 140.301 632.615 144.696 630.738 149.048C628.946 153.485 627.111 157.965 625.234 162.488H615.634C617.341 157.965 619.005 153.485 620.626 149.048C622.247 144.696 623.911 140.301 625.618 135.864H636.37Z"/>
</mask>
<path d="M20.368 94.008H32.272V147H20.368V94.008ZM19.472 74.808C19.472 72.9307 20.1973 71.352 21.648 70.072C23.184 68.792 24.848 68.152 26.64 68.152C28.432 68.152 30.0107 68.792 31.376 70.072C32.8267 71.352 33.552 72.9307 33.552 74.808C33.552 76.7707 32.8267 78.392 31.376 79.672C30.0107 80.8667 28.432 81.464 26.64 81.464C24.848 81.464 23.184 80.824 21.648 79.544C20.1973 78.264 19.472 76.6853 19.472 74.808ZM52.996 74.808L46.98 71.736C48.772 70.0293 50.18 67.6827 51.204 64.696C52.3133 61.7093 52.5693 58.7227 51.972 55.736L61.444 54.84C61.956 57.2293 61.8707 59.7467 61.188 62.392C60.5053 64.952 59.4387 67.3413 57.988 69.56C56.5373 71.7787 54.8733 73.528 52.996 74.808ZM87.117 94.008L88.141 105.912L87.629 104.888C89.5917 100.877 92.365 97.72 95.949 95.416C99.6183 93.112 103.8 91.96 108.493 91.96C111.48 91.96 114.125 92.4293 116.429 93.368C118.733 94.3067 120.61 95.672 122.061 97.464C123.597 99.1707 124.578 101.304 125.005 103.864L124.365 104.248C126.413 100.408 129.229 97.4213 132.813 95.288C136.482 93.0693 140.322 91.96 144.333 91.96C149.538 91.96 153.634 93.4533 156.621 96.44C159.693 99.3413 161.272 103.139 161.357 107.832V147H149.453V112.056C149.368 109.325 148.685 107.064 147.405 105.272C146.21 103.395 144.077 102.371 141.005 102.2C137.933 102.2 135.16 103.139 132.685 105.016C130.296 106.893 128.418 109.325 127.053 112.312C125.688 115.213 124.962 118.371 124.877 121.784V147H112.973V112.056C112.888 109.325 112.162 107.064 110.797 105.272C109.517 103.395 107.341 102.371 104.269 102.2C101.112 102.2 98.3383 103.139 95.949 105.016C93.5597 106.893 91.6823 109.325 90.317 112.312C89.037 115.299 88.397 118.499 88.397 121.912V147H76.493V94.008H87.117ZM265.626 142.136C263.237 144.013 260.378 145.507 257.05 146.616C253.722 147.725 250.394 148.28 247.066 148.28C241.263 148.28 236.186 147.128 231.834 144.824C227.482 142.52 224.069 139.32 221.594 135.224C219.205 131.043 218.01 126.136 218.01 120.504C218.01 114.872 219.29 109.965 221.85 105.784C224.495 101.603 227.909 98.4027 232.09 96.184C236.357 93.88 240.922 92.728 245.786 92.728C250.053 92.728 253.85 93.3253 257.178 94.52C260.591 95.7147 263.493 97.336 265.882 99.384L259.994 107.064C258.458 105.869 256.581 104.803 254.362 103.864C252.143 102.925 249.626 102.456 246.81 102.456C243.738 102.456 240.879 103.267 238.234 104.888C235.674 106.424 233.626 108.557 232.09 111.288C230.639 114.019 229.914 117.091 229.914 120.504C229.914 123.747 230.682 126.776 232.218 129.592C233.754 132.323 235.887 134.499 238.618 136.12C241.349 137.656 244.463 138.424 247.962 138.424C250.266 138.424 252.357 138.083 254.234 137.4C256.197 136.717 257.946 135.779 259.482 134.584L265.626 142.136ZM303.009 148.28C298.06 148.28 293.537 147.213 289.441 145.08C285.43 142.947 282.23 139.832 279.841 135.736C277.537 131.555 276.385 126.477 276.385 120.504C276.385 114.616 277.622 109.539 280.097 105.272C282.572 100.92 285.857 97.592 289.953 95.288C294.134 92.984 298.7 91.832 303.649 91.832C308.598 91.832 312.78 92.984 316.193 95.288C319.606 97.5067 322.209 100.152 324.001 103.224L323.233 105.272L324.385 94.008H335.393V147H323.489V133.176L324.769 136.248C324.428 137.101 323.66 138.211 322.465 139.576C321.356 140.856 319.82 142.179 317.857 143.544C315.98 144.909 313.804 146.061 311.329 147C308.854 147.853 306.081 148.28 303.009 148.28ZM306.209 138.424C309.196 138.424 311.884 137.869 314.273 136.76C316.662 135.651 318.625 134.115 320.161 132.152C321.782 130.104 322.892 127.672 323.489 124.856V114.488C322.806 111.928 321.612 109.709 319.905 107.832C318.198 105.869 316.15 104.376 313.761 103.352C311.372 102.243 308.726 101.688 305.825 101.688C302.668 101.688 299.766 102.456 297.121 103.992C294.476 105.528 292.342 107.661 290.721 110.392C289.185 113.123 288.417 116.323 288.417 119.992C288.417 123.405 289.228 126.52 290.849 129.336C292.47 132.152 294.646 134.371 297.377 135.992C300.108 137.613 303.052 138.424 306.209 138.424ZM366.617 94.008L367.641 105.912L367.129 104.888C369.092 100.877 371.865 97.72 375.449 95.416C379.118 93.112 383.3 91.96 387.993 91.96C390.98 91.96 393.625 92.4293 395.929 93.368C398.233 94.3067 400.11 95.672 401.561 97.464C403.097 99.1707 404.078 101.304 404.505 103.864L403.865 104.248C405.913 100.408 408.729 97.4213 412.313 95.288C415.982 93.0693 419.822 91.96 423.833 91.96C429.038 91.96 433.134 93.4533 436.121 96.44C439.193 99.3413 440.772 103.139 440.857 107.832V147H428.953V112.056C428.868 109.325 428.185 107.064 426.905 105.272C425.71 103.395 423.577 102.371 420.505 102.2C417.433 102.2 414.66 103.139 412.185 105.016C409.796 106.893 407.918 109.325 406.553 112.312C405.188 115.213 404.462 118.371 404.377 121.784V147H392.473V112.056C392.388 109.325 391.662 107.064 390.297 105.272C389.017 103.395 386.841 102.371 383.769 102.2C380.612 102.2 377.838 103.139 375.449 105.016C373.06 106.893 371.182 109.325 369.817 112.312C368.537 115.299 367.897 118.499 367.897 121.912V147H355.993V94.008H366.617ZM461.618 94.008H473.522V147H461.618V94.008ZM460.722 74.808C460.722 72.9307 461.447 71.352 462.898 70.072C464.434 68.792 466.098 68.152 467.89 68.152C469.682 68.152 471.261 68.792 472.626 70.072C474.077 71.352 474.802 72.9307 474.802 74.808C474.802 76.7707 474.077 78.392 472.626 79.672C471.261 80.8667 469.682 81.464 467.89 81.464C466.098 81.464 464.434 80.824 462.898 79.544C461.447 78.264 460.722 76.6853 460.722 74.808ZM494.118 47.928H506.022V147H494.118V47.928ZM526.618 47.928H538.522V147H526.618V47.928ZM583.694 148.28C577.635 148.28 572.43 147.085 568.078 144.696C563.726 142.221 560.355 138.893 557.966 134.712C555.662 130.445 554.51 125.581 554.51 120.12C554.51 114.915 555.833 110.179 558.478 105.912C561.123 101.645 564.665 98.232 569.102 95.672C573.539 93.112 578.489 91.832 583.95 91.832C590.947 91.832 596.75 93.88 601.358 97.976C605.966 102.072 609.081 107.704 610.702 114.872L567.054 130.232L564.238 123.192L600.078 110.136L597.518 111.8C596.494 108.984 594.787 106.552 592.398 104.504C590.009 102.371 586.894 101.304 583.054 101.304C579.811 101.304 576.91 102.115 574.35 103.736C571.79 105.272 569.785 107.405 568.334 110.136C566.883 112.867 566.158 115.981 566.158 119.48C566.158 123.149 566.926 126.392 568.462 129.208C569.998 131.939 572.089 134.115 574.734 135.736C577.465 137.272 580.537 138.04 583.95 138.04C586.254 138.04 588.473 137.613 590.606 136.76C592.825 135.907 594.873 134.797 596.75 133.432L602.254 142.264C599.609 144.056 596.622 145.507 593.294 146.616C590.051 147.725 586.851 148.28 583.694 148.28ZM636.37 135.864C634.493 140.301 632.615 144.696 630.738 149.048C628.946 153.485 627.111 157.965 625.234 162.488H615.634C617.341 157.965 619.005 153.485 620.626 149.048C622.247 144.696 623.911 140.301 625.618 135.864H636.37Z" fill="white"/>
<path d="M20.368 94.008V93.008H19.368V94.008H20.368ZM32.272 94.008H33.272V93.008H32.272V94.008ZM32.272 147V148H33.272V147H32.272ZM20.368 147H19.368V148H20.368V147ZM21.648 70.072L21.0078 69.3038L20.997 69.3128L20.9864 69.3222L21.648 70.072ZM31.376 70.072L30.6921 70.8015L30.7031 70.8119L30.7144 70.8218L31.376 70.072ZM31.376 79.672L32.0345 80.4246L32.0376 80.4218L31.376 79.672ZM21.648 79.544L20.9864 80.2938L20.997 80.3032L21.0078 80.3122L21.648 79.544ZM20.368 95.008H32.272V93.008H20.368V95.008ZM31.272 94.008V147H33.272V94.008H31.272ZM32.272 146H20.368V148H32.272V146ZM21.368 147V94.008H19.368V147H21.368ZM20.472 74.808C20.472 73.2274 21.0666 71.9186 22.3096 70.8218L20.9864 69.3222C19.3281 70.7854 18.472 72.6339 18.472 74.808H20.472ZM22.2882 70.8402C23.6666 69.6915 25.1093 69.152 26.64 69.152V67.152C24.5868 67.152 22.7014 67.8925 21.0078 69.3038L22.2882 70.8402ZM26.64 69.152C28.1658 69.152 29.503 69.6868 30.6921 70.8015L32.0599 69.3425C30.5183 67.8972 28.6982 67.152 26.64 67.152V69.152ZM30.7144 70.8218C31.9574 71.9186 32.552 73.2274 32.552 74.808H34.552C34.552 72.6339 33.6959 70.7854 32.0376 69.3222L30.7144 70.8218ZM32.552 74.808C32.552 76.4885 31.9464 77.8351 30.7144 78.9222L32.0376 80.4218C33.707 78.9489 34.552 77.0528 34.552 74.808H32.552ZM30.7175 78.9194C29.532 79.9568 28.1865 80.464 26.64 80.464V82.464C28.6775 82.464 30.4894 81.7766 32.0345 80.4246L30.7175 78.9194ZM26.64 80.464C25.1093 80.464 23.6666 79.9245 22.2882 78.7758L21.0078 80.3122C22.7014 81.7235 24.5868 82.464 26.64 82.464V80.464ZM22.3096 78.7942C21.0666 77.6974 20.472 76.3886 20.472 74.808H18.472C18.472 76.9821 19.3281 78.8306 20.9864 80.2938L22.3096 78.7942ZM52.996 74.808L52.5412 75.6986L53.0694 75.9683L53.5593 75.6342L52.996 74.808ZM46.98 71.736L46.2903 71.0119L45.2686 71.9849L46.5252 72.6266L46.98 71.736ZM51.204 64.696L50.2666 64.3478L50.2622 64.3597L50.2581 64.3717L51.204 64.696ZM51.972 55.736L51.8778 54.7404L50.774 54.8449L50.9914 55.9321L51.972 55.736ZM61.444 54.84L62.4218 54.6305L62.2354 53.7607L61.3498 53.8444L61.444 54.84ZM61.188 62.392L62.1543 62.6497L62.1563 62.6419L61.188 62.392ZM57.988 69.56L58.825 70.1072V70.1072L57.988 69.56ZM53.4508 73.9174L47.4348 70.8454L46.5252 72.6266L52.5412 75.6986L53.4508 73.9174ZM47.6697 72.4601C49.6056 70.6164 51.0878 68.1181 52.1499 65.0203L50.2581 64.3717C49.2722 67.2472 47.9384 69.4423 46.2903 71.0119L47.6697 72.4601ZM52.1414 65.0442C53.3122 61.892 53.588 58.7171 52.9526 55.5399L50.9914 55.9321C51.5507 58.7283 51.3144 61.5267 50.2666 64.3478L52.1414 65.0442ZM52.0662 56.7315L61.5382 55.8356L61.3498 53.8444L51.8778 54.7404L52.0662 56.7315ZM60.4662 55.0495C60.942 57.2699 60.8682 59.6292 60.2197 62.1421L62.1563 62.6419C62.8731 59.8642 62.97 57.1887 62.4218 54.6305L60.4662 55.0495ZM60.2218 62.1343C59.5665 64.5915 58.5435 66.8831 57.151 69.0127L58.825 70.1072C60.3338 67.7996 61.4441 65.3125 62.1542 62.6497L60.2218 62.1343ZM57.151 69.0127C55.7605 71.1394 54.1848 72.7871 52.4327 73.9818L53.5593 75.6342C55.5619 74.2688 57.3142 72.4179 58.825 70.1072L57.151 69.0127ZM87.117 94.008L88.1133 93.9223L88.0347 93.008H87.117V94.008ZM88.141 105.912L87.2466 106.359L89.1373 105.826L88.141 105.912ZM87.629 104.888L86.7308 104.448L86.5134 104.893L86.7346 105.335L87.629 104.888ZM95.949 95.416L95.4172 94.5691L95.4082 94.5748L95.949 95.416ZM116.429 93.368L116.806 92.4419L116.429 93.368ZM122.061 97.464L121.284 98.0932L121.3 98.1135L121.318 98.133L122.061 97.464ZM125.005 103.864L125.519 104.721L126.103 104.371L125.991 103.7L125.005 103.864ZM124.365 104.248L123.483 103.777L121.784 106.963L124.879 105.105L124.365 104.248ZM132.813 95.288L133.325 96.1473L133.33 96.1437L132.813 95.288ZM156.621 96.44L155.914 97.1471L155.924 97.1572L155.934 97.167L156.621 96.44ZM161.357 107.832H162.357V107.823L162.357 107.814L161.357 107.832ZM161.357 147V148H162.357V147H161.357ZM149.453 147H148.453V148H149.453V147ZM149.453 112.056H150.453V112.04L150.453 112.025L149.453 112.056ZM147.405 105.272L146.561 105.809L146.576 105.831L146.591 105.853L147.405 105.272ZM141.005 102.2L141.06 101.202L141.033 101.2H141.005V102.2ZM132.685 105.016L132.081 104.219L132.074 104.224L132.067 104.23L132.685 105.016ZM127.053 112.312L127.958 112.738L127.962 112.728L127.053 112.312ZM124.877 121.784L123.877 121.759L123.877 121.771V121.784H124.877ZM124.877 147V148H125.877V147H124.877ZM112.973 147H111.973V148H112.973V147ZM112.973 112.056H113.973V112.04L113.973 112.025L112.973 112.056ZM110.797 105.272L109.971 105.835L109.986 105.857L110.002 105.878L110.797 105.272ZM104.269 102.2L104.324 101.202L104.297 101.2H104.269V102.2ZM95.949 105.016L96.5668 105.802L95.949 105.016ZM90.317 112.312L89.4075 111.896L89.4026 111.907L89.3979 111.918L90.317 112.312ZM88.397 147V148H89.397V147H88.397ZM76.493 147H75.493V148H76.493V147ZM76.493 94.008V93.008H75.493V94.008H76.493ZM86.1207 94.0937L87.1447 105.998L89.1373 105.826L88.1133 93.9223L86.1207 94.0937ZM89.0354 105.465L88.5234 104.441L86.7346 105.335L87.2466 106.359L89.0354 105.465ZM88.5272 105.328C90.4137 101.473 93.0669 98.4576 96.4898 96.2572L95.4082 94.5748C91.6631 96.9824 88.7697 100.282 86.7308 104.448L88.5272 105.328ZM96.4808 96.2629C99.9775 94.0672 103.972 92.96 108.493 92.96V90.96C103.628 90.96 99.2591 92.1567 95.4172 94.5691L96.4808 96.2629ZM108.493 92.96C111.376 92.96 113.889 93.413 116.052 94.2941L116.806 92.4419C114.361 91.4457 111.584 90.96 108.493 90.96V92.96ZM116.052 94.2941C118.212 95.1743 119.948 96.4426 121.284 98.0932L122.838 96.8348C121.273 94.9014 119.254 93.439 116.806 92.4419L116.052 94.2941ZM121.318 98.133C122.71 99.6802 123.619 101.631 124.019 104.028L125.991 103.7C125.538 100.977 124.484 98.6612 122.804 96.795L121.318 98.133ZM124.491 103.007L123.851 103.391L124.879 105.105L125.519 104.721L124.491 103.007ZM125.247 104.719C127.213 101.032 129.904 98.1832 133.324 96.1473L132.302 94.4287C128.554 96.6595 125.613 99.7838 123.483 103.777L125.247 104.719ZM133.33 96.1437C136.855 94.0127 140.517 92.96 144.333 92.96V90.96C140.127 90.96 136.11 92.126 132.296 94.4323L133.33 96.1437ZM144.333 92.96C149.339 92.96 153.156 94.3896 155.914 97.1471L157.328 95.7329C154.112 92.517 149.738 90.96 144.333 90.96V92.96ZM155.934 97.167C158.788 99.8624 160.276 103.393 160.357 107.85L162.357 107.814C162.267 102.884 160.598 98.8202 157.308 95.713L155.934 97.167ZM160.357 107.832V147H162.357V107.832H160.357ZM161.357 146H149.453V148H161.357V146ZM150.453 147V112.056H148.453V147H150.453ZM150.453 112.025C150.363 109.144 149.639 106.679 148.219 104.691L146.591 105.853C147.731 107.449 148.373 109.506 148.453 112.087L150.453 112.025ZM148.249 104.735C146.82 102.49 144.321 101.383 141.06 101.202L140.95 103.198C143.833 103.359 145.601 104.299 146.561 105.809L148.249 104.735ZM141.005 101.2C137.712 101.2 134.727 102.212 132.081 104.219L133.289 105.813C135.592 104.066 138.154 103.2 141.005 103.2V101.2ZM132.067 104.23C129.543 106.213 127.57 108.777 126.144 111.896L127.962 112.728C129.267 109.874 131.049 107.573 133.303 105.802L132.067 104.23ZM126.148 111.886C124.72 114.921 123.966 118.216 123.877 121.759L125.877 121.809C125.959 118.525 126.655 115.506 127.958 112.738L126.148 111.886ZM123.877 121.784V147H125.877V121.784H123.877ZM124.877 146H112.973V148H124.877V146ZM113.973 147V112.056H111.973V147H113.973ZM113.973 112.025C113.882 109.131 113.109 106.656 111.592 104.666L110.002 105.878C111.216 107.472 111.893 109.52 111.973 112.087L113.973 112.025ZM111.623 104.709C110.111 102.49 107.589 101.383 104.324 101.202L104.214 103.198C107.093 103.358 108.923 104.299 109.971 105.835L111.623 104.709ZM104.269 101.2C100.897 101.2 97.904 102.208 95.3312 104.23L96.5668 105.802C98.7727 104.069 101.326 103.2 104.269 103.2V101.2ZM95.3312 104.23C92.8065 106.213 90.8337 108.777 89.4075 111.896L91.2265 112.728C92.531 109.874 94.3128 107.573 96.5668 105.802L95.3312 104.23ZM89.3979 111.918C88.0618 115.035 87.397 118.37 87.397 121.912H89.397C89.397 118.627 90.0122 115.562 91.2361 112.706L89.3979 111.918ZM87.397 121.912V147H89.397V121.912H87.397ZM88.397 146H76.493V148H88.397V146ZM77.493 147V94.008H75.493V147H77.493ZM76.493 95.008H87.117V93.008H76.493V95.008ZM265.626 142.136L266.244 142.922L267.044 142.294L266.402 141.505L265.626 142.136ZM231.834 144.824L232.302 143.94L231.834 144.824ZM221.594 135.224L220.726 135.72L220.732 135.731L220.738 135.741L221.594 135.224ZM221.85 105.784L221.005 105.249L221.001 105.256L220.997 105.262L221.85 105.784ZM232.09 96.184L232.559 97.0674L232.565 97.0639L232.09 96.184ZM257.178 94.52L256.84 95.4612L256.848 95.4639L257.178 94.52ZM265.882 99.384L266.676 99.9924L267.252 99.241L266.533 98.6247L265.882 99.384ZM259.994 107.064L259.38 107.853L260.175 108.472L260.788 107.672L259.994 107.064ZM254.362 103.864L254.752 102.943L254.362 103.864ZM238.234 104.888L238.749 105.746L238.757 105.741L238.234 104.888ZM232.09 111.288L231.218 110.798L231.213 110.808L231.207 110.819L232.09 111.288ZM232.218 129.592L231.34 130.071L231.346 130.082L232.218 129.592ZM238.618 136.12L238.107 136.98L238.118 136.986L238.128 136.992L238.618 136.12ZM254.234 137.4L253.905 136.455L253.892 136.46L254.234 137.4ZM259.482 134.584L260.258 133.953L259.64 133.194L258.868 133.795L259.482 134.584ZM265.008 141.35C262.722 143.146 259.969 144.589 256.734 145.667L257.366 147.565C260.787 146.424 263.751 144.881 266.244 142.922L265.008 141.35ZM256.734 145.667C253.502 146.745 250.281 147.28 247.066 147.28V149.28C250.507 149.28 253.942 148.706 257.366 147.565L256.734 145.667ZM247.066 147.28C241.397 147.28 236.486 146.155 232.302 143.94L231.366 145.708C235.886 148.101 241.129 149.28 247.066 149.28V147.28ZM232.302 143.94C228.105 141.718 224.828 138.643 222.45 134.707L220.738 135.741C223.309 139.997 226.859 143.322 231.366 145.708L232.302 143.94ZM222.462 134.728C220.173 130.721 219.01 125.992 219.01 120.504H217.01C217.01 126.28 218.236 131.364 220.726 135.72L222.462 134.728ZM219.01 120.504C219.01 115.028 220.253 110.308 222.703 106.306L220.997 105.262C218.327 109.623 217.01 114.716 217.01 120.504H219.01ZM222.695 106.319C225.252 102.277 228.538 99.2007 232.559 97.0673L231.621 95.3006C227.279 97.6046 223.739 100.928 221.005 105.249L222.695 106.319ZM232.565 97.0639C236.685 94.839 241.087 93.728 245.786 93.728V91.728C240.757 91.728 236.028 92.921 231.615 95.3041L232.565 97.0639ZM245.786 93.728C249.961 93.728 253.64 94.3125 256.84 95.4612L257.516 93.5788C254.06 92.3381 250.145 91.728 245.786 91.728V93.728ZM256.848 95.4639C260.161 96.6235 262.949 98.1873 265.231 100.143L266.533 98.6247C264.036 96.4847 261.022 94.8058 257.508 93.5761L256.848 95.4639ZM265.088 98.7756L259.2 106.456L260.788 107.672L266.676 99.9924L265.088 98.7756ZM260.608 106.275C258.989 105.016 257.032 103.908 254.752 102.943L253.972 104.785C256.129 105.697 257.927 106.723 259.38 107.853L260.608 106.275ZM254.752 102.943C252.391 101.944 249.738 101.456 246.81 101.456V103.456C249.514 103.456 251.896 103.907 253.972 104.785L254.752 102.943ZM246.81 101.456C243.552 101.456 240.512 102.319 237.711 104.035L238.757 105.741C241.246 104.215 243.924 103.456 246.81 103.456V101.456ZM237.719 104.031C235.003 105.66 232.835 107.924 231.218 110.798L232.962 111.778C234.417 109.191 236.345 107.188 238.749 105.745L237.719 104.031ZM231.207 110.819C229.672 113.709 228.914 116.944 228.914 120.504H230.914C230.914 117.237 231.607 114.329 232.973 111.757L231.207 110.819ZM228.914 120.504C228.914 123.912 229.723 127.106 231.34 130.071L233.096 129.113C231.641 126.446 230.914 123.581 230.914 120.504H228.914ZM231.346 130.082C232.97 132.968 235.228 135.27 238.107 136.98L239.129 135.26C236.546 133.727 234.538 131.678 233.09 129.102L231.346 130.082ZM238.128 136.992C241.025 138.621 244.312 139.424 247.962 139.424V137.424C244.615 137.424 241.672 136.691 239.108 135.248L238.128 136.992ZM247.962 139.424C250.365 139.424 252.573 139.068 254.576 138.34L253.892 136.46C252.14 137.097 250.167 137.424 247.962 137.424V139.424ZM254.563 138.344C256.621 137.628 258.468 136.639 260.096 135.373L258.868 133.795C257.424 134.918 255.772 135.806 253.905 136.456L254.563 138.344ZM258.706 135.215L264.85 142.767L266.402 141.505L260.258 133.953L258.706 135.215ZM289.441 145.08L288.971 145.963L288.979 145.967L289.441 145.08ZM279.841 135.736L278.965 136.219L278.971 136.229L278.977 136.24L279.841 135.736ZM280.097 105.272L280.962 105.774L280.966 105.766L280.097 105.272ZM289.953 95.288L289.47 94.4121L289.463 94.4164L289.953 95.288ZM316.193 95.288L315.634 96.1168L315.641 96.1217L315.648 96.1264L316.193 95.288ZM324.001 103.224L324.937 103.575L325.104 103.13L324.865 102.72L324.001 103.224ZM323.233 105.272L322.238 105.17L324.169 105.623L323.233 105.272ZM324.385 94.008V93.008H323.482L323.39 93.9063L324.385 94.008ZM335.393 94.008H336.393V93.008H335.393V94.008ZM335.393 147V148H336.393V147H335.393ZM323.489 147H322.489V148H323.489V147ZM323.489 133.176L324.412 132.791L322.489 133.176H323.489ZM324.769 136.248L325.697 136.619L325.849 136.24L325.692 135.863L324.769 136.248ZM322.465 139.576L321.712 138.917L321.709 138.921L322.465 139.576ZM317.857 143.544L317.286 142.723L317.277 142.729L317.269 142.735L317.857 143.544ZM311.329 147L311.655 147.945L311.669 147.94L311.684 147.935L311.329 147ZM314.273 136.76L313.852 135.853L314.273 136.76ZM320.161 132.152L319.377 131.531L319.374 131.536L320.161 132.152ZM323.489 124.856L324.467 125.063L324.489 124.961V124.856H323.489ZM323.489 114.488H324.489V114.357L324.455 114.23L323.489 114.488ZM319.905 107.832L319.15 108.488L319.158 108.497L319.165 108.505L319.905 107.832ZM313.761 103.352L313.34 104.259L313.353 104.265L313.367 104.271L313.761 103.352ZM297.121 103.992L296.619 103.127L297.121 103.992ZM290.721 110.392L289.861 109.881L289.855 109.892L289.849 109.902L290.721 110.392ZM290.849 129.336L291.716 128.837L290.849 129.336ZM303.009 147.28C298.209 147.28 293.846 146.247 289.903 144.193L288.979 145.967C293.228 148.18 297.911 149.28 303.009 149.28V147.28ZM289.911 144.197C286.071 142.155 283.005 139.175 280.705 135.232L278.977 136.24C281.456 140.489 284.789 143.738 288.971 145.963L289.911 144.197ZM280.717 135.253C278.512 131.253 277.385 126.35 277.385 120.504H275.385C275.385 126.604 276.562 131.857 278.965 136.219L280.717 135.253ZM277.385 120.504C277.385 114.758 278.591 109.861 280.962 105.774L279.232 104.77C276.653 109.216 275.385 114.474 275.385 120.504H277.385ZM280.966 105.766C283.357 101.561 286.516 98.3687 290.443 96.1596L289.463 94.4164C285.198 96.8153 281.786 100.279 279.228 104.778L280.966 105.766ZM290.436 96.1638C294.464 93.9443 298.862 92.832 303.649 92.832V90.832C298.537 90.832 293.805 92.0237 289.47 94.4122L290.436 96.1638ZM303.649 92.832C308.44 92.832 312.416 93.9453 315.634 96.1168L316.752 94.4591C313.143 92.0227 308.757 90.832 303.649 90.832V92.832ZM315.648 96.1264C318.949 98.2724 321.435 100.809 323.137 103.728L324.865 102.72C322.983 99.4949 320.263 96.741 316.738 94.4496L315.648 96.1264ZM323.065 102.873L322.297 104.921L324.169 105.623L324.937 103.575L323.065 102.873ZM324.228 105.374L325.38 94.1097L323.39 93.9063L322.238 105.17L324.228 105.374ZM324.385 95.008H335.393V93.008H324.385V95.008ZM334.393 94.008V147H336.393V94.008H334.393ZM335.393 146H323.489V148H335.393V146ZM324.489 147V133.176H322.489V147H324.489ZM322.566 133.561L323.846 136.633L325.692 135.863L324.412 132.791L322.566 133.561ZM323.841 135.877C323.565 136.566 322.891 137.571 321.712 138.917L323.218 140.235C324.429 138.85 325.291 137.636 325.697 136.619L323.841 135.877ZM321.709 138.921C320.672 140.118 319.206 141.387 317.286 142.723L318.428 144.365C320.433 142.97 322.04 141.594 323.221 140.231L321.709 138.921ZM317.269 142.735C315.473 144.042 313.377 145.154 310.974 146.065L311.684 147.935C314.23 146.969 316.487 145.777 318.445 144.353L317.269 142.735ZM311.003 146.055C308.65 146.866 305.989 147.28 303.009 147.28V149.28C306.173 149.28 309.059 148.841 311.655 147.945L311.003 146.055ZM306.209 139.424C309.322 139.424 312.156 138.845 314.694 137.667L313.852 135.853C311.611 136.893 309.07 137.424 306.209 137.424V139.424ZM314.694 137.667C317.218 136.495 319.31 134.863 320.949 132.768L319.374 131.536C317.94 133.367 316.106 134.806 313.852 135.853L314.694 137.667ZM320.945 132.773C322.672 130.592 323.841 128.015 324.467 125.063L322.511 124.648C321.942 127.329 320.893 129.616 319.377 131.531L320.945 132.773ZM324.489 124.856V114.488H322.489V124.856H324.489ZM324.455 114.23C323.733 111.523 322.464 109.16 320.645 107.159L319.165 108.505C320.759 110.258 321.879 112.333 322.523 114.746L324.455 114.23ZM320.66 107.176C318.854 105.1 316.683 103.516 314.155 102.433L313.367 104.271C315.618 105.236 317.543 106.639 319.15 108.488L320.66 107.176ZM314.182 102.445C311.648 101.268 308.857 100.688 305.825 100.688V102.688C308.596 102.688 311.095 103.217 313.34 104.259L314.182 102.445ZM305.825 100.688C302.497 100.688 299.422 101.5 296.619 103.127L297.623 104.857C300.111 103.412 302.838 102.688 305.825 102.688V100.688ZM296.619 103.127C293.82 104.752 291.566 107.01 289.861 109.881L291.581 110.903C293.119 108.313 295.131 106.304 297.623 104.857L296.619 103.127ZM289.849 109.902C288.216 112.806 287.417 116.181 287.417 119.992H289.417C289.417 116.465 290.154 113.439 291.593 110.882L289.849 109.902ZM287.417 119.992C287.417 123.571 288.269 126.859 289.982 129.835L291.716 128.837C290.186 126.181 289.417 123.239 289.417 119.992H287.417ZM289.982 129.835C291.687 132.796 293.985 135.141 296.866 136.852L297.888 135.132C295.308 133.601 293.253 131.508 291.716 128.837L289.982 129.835ZM296.866 136.852C299.751 138.564 302.871 139.424 306.209 139.424V137.424C303.232 137.424 300.465 136.662 297.888 135.132L296.866 136.852ZM366.617 94.008L367.613 93.9223L367.535 93.008H366.617V94.008ZM367.641 105.912L366.747 106.359L368.637 105.826L367.641 105.912ZM367.129 104.888L366.231 104.448L366.013 104.893L366.235 105.335L367.129 104.888ZM375.449 95.416L374.917 94.5691L374.908 94.5748L375.449 95.416ZM395.929 93.368L396.306 92.4419L395.929 93.368ZM401.561 97.464L400.784 98.0932L400.8 98.1135L400.818 98.133L401.561 97.464ZM404.505 103.864L405.02 104.721L405.603 104.371L405.491 103.7L404.505 103.864ZM403.865 104.248L402.983 103.777L401.284 106.963L404.379 105.105L403.865 104.248ZM412.313 95.288L412.824 96.1473L412.83 96.1437L412.313 95.288ZM436.121 96.44L435.414 97.1471L435.424 97.1572L435.434 97.167L436.121 96.44ZM440.857 107.832H441.857V107.823L441.857 107.814L440.857 107.832ZM440.857 147V148H441.857V147H440.857ZM428.953 147H427.953V148H428.953V147ZM428.953 112.056H429.953V112.04L429.953 112.025L428.953 112.056ZM426.905 105.272L426.061 105.809L426.076 105.831L426.091 105.853L426.905 105.272ZM420.505 102.2L420.56 101.202L420.533 101.2H420.505V102.2ZM412.185 105.016L411.581 104.219L411.574 104.224L411.567 104.23L412.185 105.016ZM406.553 112.312L407.458 112.738L407.462 112.728L406.553 112.312ZM404.377 121.784L403.377 121.759L403.377 121.771V121.784H404.377ZM404.377 147V148H405.377V147H404.377ZM392.473 147H391.473V148H392.473V147ZM392.473 112.056H393.473V112.04L393.473 112.025L392.473 112.056ZM390.297 105.272L389.471 105.835L389.486 105.857L389.502 105.878L390.297 105.272ZM383.769 102.2L383.824 101.202L383.797 101.2H383.769V102.2ZM375.449 105.016L376.067 105.802L375.449 105.016ZM369.817 112.312L368.908 111.896L368.903 111.907L368.898 111.918L369.817 112.312ZM367.897 147V148H368.897V147H367.897ZM355.993 147H354.993V148H355.993V147ZM355.993 94.008V93.008H354.993V94.008H355.993ZM365.621 94.0937L366.645 105.998L368.637 105.826L367.613 93.9223L365.621 94.0937ZM368.535 105.465L368.023 104.441L366.235 105.335L366.747 106.359L368.535 105.465ZM368.027 105.328C369.914 101.473 372.567 98.4576 375.99 96.2572L374.908 94.5748C371.163 96.9824 368.27 100.282 366.231 104.448L368.027 105.328ZM375.981 96.2629C379.478 94.0672 383.472 92.96 387.993 92.96V90.96C383.128 90.96 378.759 92.1567 374.917 94.5691L375.981 96.2629ZM387.993 92.96C390.876 92.96 393.389 93.413 395.552 94.2941L396.306 92.4419C393.861 91.4457 391.084 90.96 387.993 90.96V92.96ZM395.552 94.2941C397.712 95.1743 399.448 96.4426 400.784 98.0932L402.338 96.8348C400.773 94.9014 398.754 93.439 396.306 92.4419L395.552 94.2941ZM400.818 98.133C402.21 99.6802 403.119 101.631 403.519 104.028L405.491 103.7C405.038 100.977 403.984 98.6612 402.304 96.795L400.818 98.133ZM403.991 103.007L403.35 103.391L404.379 105.105L405.02 104.721L403.991 103.007ZM404.747 104.719C406.713 101.032 409.404 98.1832 412.824 96.1473L411.802 94.4287C408.054 96.6595 405.113 99.7838 402.983 103.777L404.747 104.719ZM412.83 96.1437C416.355 94.0127 420.017 92.96 423.833 92.96V90.96C419.627 90.96 415.61 92.126 411.796 94.4323L412.83 96.1437ZM423.833 92.96C428.839 92.96 432.656 94.3896 435.414 97.1471L436.828 95.7329C433.612 92.517 429.238 90.96 423.833 90.96V92.96ZM435.434 97.167C438.288 99.8624 439.776 103.393 439.857 107.85L441.857 107.814C441.767 102.884 440.098 98.8202 436.808 95.713L435.434 97.167ZM439.857 107.832V147H441.857V107.832H439.857ZM440.857 146H428.953V148H440.857V146ZM429.953 147V112.056H427.953V147H429.953ZM429.953 112.025C429.862 109.144 429.139 106.679 427.719 104.691L426.091 105.853C427.231 107.449 427.873 109.506 427.953 112.087L429.953 112.025ZM427.749 104.735C426.32 102.49 423.821 101.383 420.56 101.202L420.45 103.198C423.333 103.359 425.1 104.299 426.061 105.809L427.749 104.735ZM420.505 101.2C417.212 101.2 414.227 102.212 411.581 104.219L412.789 105.813C415.092 104.066 417.654 103.2 420.505 103.2V101.2ZM411.567 104.23C409.043 106.213 407.07 108.777 405.644 111.896L407.462 112.728C408.767 109.874 410.549 107.573 412.803 105.802L411.567 104.23ZM405.648 111.886C404.22 114.921 403.466 118.216 403.377 121.759L405.377 121.809C405.459 118.525 406.155 115.506 407.458 112.738L405.648 111.886ZM403.377 121.784V147H405.377V121.784H403.377ZM404.377 146H392.473V148H404.377V146ZM393.473 147V112.056H391.473V147H393.473ZM393.473 112.025C393.382 109.131 392.609 106.656 391.092 104.666L389.502 105.878C390.716 107.472 391.393 109.52 391.473 112.087L393.473 112.025ZM391.123 104.709C389.611 102.49 387.089 101.383 383.824 101.202L383.714 103.198C386.593 103.358 388.423 104.299 389.471 105.835L391.123 104.709ZM383.769 101.2C380.397 101.2 377.404 102.208 374.831 104.23L376.067 105.802C378.273 104.069 380.826 103.2 383.769 103.2V101.2ZM374.831 104.23C372.307 106.213 370.334 108.777 368.908 111.896L370.726 112.728C372.031 109.874 373.813 107.573 376.067 105.802L374.831 104.23ZM368.898 111.918C367.562 115.035 366.897 118.37 366.897 121.912H368.897C368.897 118.627 369.512 115.562 370.736 112.706L368.898 111.918ZM366.897 121.912V147H368.897V121.912H366.897ZM367.897 146H355.993V148H367.897V146ZM356.993 147V94.008H354.993V147H356.993ZM355.993 95.008H366.617V93.008H355.993V95.008ZM461.618 94.008V93.008H460.618V94.008H461.618ZM473.522 94.008H474.522V93.008H473.522V94.008ZM473.522 147V148H474.522V147H473.522ZM461.618 147H460.618V148H461.618V147ZM462.898 70.072L462.258 69.3038L462.247 69.3128L462.236 69.3222L462.898 70.072ZM472.626 70.072L471.942 70.8015L471.953 70.8119L471.964 70.8218L472.626 70.072ZM472.626 79.672L473.285 80.4246L473.288 80.4218L472.626 79.672ZM462.898 79.544L462.236 80.2938L462.247 80.3032L462.258 80.3122L462.898 79.544ZM461.618 95.008H473.522V93.008H461.618V95.008ZM472.522 94.008V147H474.522V94.008H472.522ZM473.522 146H461.618V148H473.522V146ZM462.618 147V94.008H460.618V147H462.618ZM461.722 74.808C461.722 73.2274 462.317 71.9186 463.56 70.8218L462.236 69.3222C460.578 70.7854 459.722 72.6339 459.722 74.808H461.722ZM463.538 70.8402C464.917 69.6915 466.359 69.152 467.89 69.152V67.152C465.837 67.152 463.951 67.8925 462.258 69.3038L463.538 70.8402ZM467.89 69.152C469.416 69.152 470.753 69.6868 471.942 70.8015L473.31 69.3425C471.768 67.8972 469.948 67.152 467.89 67.152V69.152ZM471.964 70.8218C473.207 71.9186 473.802 73.2274 473.802 74.808H475.802C475.802 72.6339 474.946 70.7854 473.288 69.3222L471.964 70.8218ZM473.802 74.808C473.802 76.4885 473.196 77.8351 471.964 78.9222L473.288 80.4218C474.957 78.9489 475.802 77.0528 475.802 74.808H473.802ZM471.967 78.9194C470.782 79.9568 469.436 80.464 467.89 80.464V82.464C469.928 82.464 471.739 81.7766 473.285 80.4246L471.967 78.9194ZM467.89 80.464C466.359 80.464 464.917 79.9245 463.538 78.7758L462.258 80.3122C463.951 81.7235 465.837 82.464 467.89 82.464V80.464ZM463.56 78.7942C462.317 77.6974 461.722 76.3886 461.722 74.808H459.722C459.722 76.9821 460.578 78.8306 462.236 80.2938L463.56 78.7942ZM494.118 47.928V46.928H493.118V47.928H494.118ZM506.022 47.928H507.022V46.928H506.022V47.928ZM506.022 147V148H507.022V147H506.022ZM494.118 147H493.118V148H494.118V147ZM494.118 48.928H506.022V46.928H494.118V48.928ZM505.022 47.928V147H507.022V47.928H505.022ZM506.022 146H494.118V148H506.022V146ZM495.118 147V47.928H493.118V147H495.118ZM526.618 47.928V46.928H525.618V47.928H526.618ZM538.522 47.928H539.522V46.928H538.522V47.928ZM538.522 147V148H539.522V147H538.522ZM526.618 147H525.618V148H526.618V147ZM526.618 48.928H538.522V46.928H526.618V48.928ZM537.522 47.928V147H539.522V47.928H537.522ZM538.522 146H526.618V148H538.522V146ZM527.618 147V47.928H525.618V147H527.618ZM568.078 144.696L567.584 145.565L567.59 145.569L567.597 145.573L568.078 144.696ZM557.966 134.712L557.086 135.187L557.092 135.198L557.098 135.208L557.966 134.712ZM558.478 105.912L559.328 106.439L558.478 105.912ZM601.358 97.976L600.694 98.7234L601.358 97.976ZM610.702 114.872L611.034 115.815L611.874 115.52L611.677 114.651L610.702 114.872ZM567.054 130.232L566.126 130.603L566.482 131.494L567.386 131.175L567.054 130.232ZM564.238 123.192L563.896 122.252L562.926 122.606L563.31 123.563L564.238 123.192ZM600.078 110.136L600.623 110.974L599.736 109.196L600.078 110.136ZM597.518 111.8L596.578 112.142L597.008 113.324L598.063 112.638L597.518 111.8ZM592.398 104.504L591.732 105.25L591.74 105.257L591.747 105.263L592.398 104.504ZM574.35 103.736L574.865 104.593L574.875 104.587L574.885 104.581L574.35 103.736ZM568.334 110.136L569.217 110.605L568.334 110.136ZM568.462 129.208L567.584 129.687L567.59 129.698L568.462 129.208ZM574.734 135.736L574.211 136.589L574.227 136.598L574.244 136.608L574.734 135.736ZM590.606 136.76L590.247 135.827L590.235 135.832L590.606 136.76ZM596.75 133.432L597.599 132.903L597.031 131.991L596.162 132.623L596.75 133.432ZM602.254 142.264L602.815 143.092L603.612 142.552L603.103 141.735L602.254 142.264ZM593.294 146.616L592.978 145.667L592.97 145.67L593.294 146.616ZM583.694 147.28C577.767 147.28 572.735 146.112 568.559 143.819L567.597 145.573C572.125 148.059 577.504 149.28 583.694 149.28V147.28ZM568.572 143.827C564.37 141.437 561.131 138.235 558.834 134.216L557.098 135.208C559.58 139.551 563.082 143.006 567.584 145.565L568.572 143.827ZM558.846 134.237C556.63 130.134 555.51 125.437 555.51 120.12H553.51C553.51 125.726 554.694 130.757 557.086 135.187L558.846 134.237ZM555.51 120.12C555.51 115.094 556.784 110.541 559.328 106.439L557.628 105.385C554.881 109.816 553.51 114.736 553.51 120.12H555.51ZM559.328 106.439C561.884 102.315 565.304 99.0175 569.602 96.5382L568.602 94.8058C564.025 97.4465 560.362 100.975 557.628 105.385L559.328 106.439ZM569.602 96.5382C573.877 94.0717 578.652 92.832 583.95 92.832V90.832C578.325 90.832 573.202 92.1523 568.602 94.8058L569.602 96.5382ZM583.95 92.832C590.738 92.832 596.294 94.8122 600.694 98.7234L602.022 97.2286C597.206 92.9478 591.157 90.832 583.95 90.832V92.832ZM600.694 98.7234C605.117 102.656 608.142 108.088 609.727 115.093L611.677 114.651C610.019 107.32 606.815 101.488 602.022 97.2286L600.694 98.7234ZM610.37 113.929L566.722 129.289L567.386 131.175L611.034 115.815L610.37 113.929ZM567.982 129.861L565.167 122.821L563.31 123.563L566.126 130.603L567.982 129.861ZM564.58 124.132L600.42 111.076L599.736 109.196L563.896 122.252L564.58 124.132ZM599.533 109.298L596.973 110.962L598.063 112.638L600.623 110.974L599.533 109.298ZM598.458 111.458C597.372 108.472 595.562 105.899 593.049 103.745L591.747 105.263C594.013 107.205 595.616 109.496 596.578 112.142L598.458 111.458ZM593.064 103.758C590.456 101.43 587.088 100.304 583.054 100.304V102.304C586.7 102.304 589.561 103.312 591.732 105.25L593.064 103.758ZM583.054 100.304C579.636 100.304 576.546 101.161 573.815 102.891L574.885 104.581C577.274 103.068 579.987 102.304 583.054 102.304V100.304ZM573.836 102.879C571.114 104.511 568.984 106.782 567.451 109.667L569.217 110.605C570.586 108.029 572.466 106.033 574.865 104.593L573.836 102.879ZM567.451 109.667C565.914 112.56 565.158 115.84 565.158 119.48H567.158C567.158 116.123 567.853 113.173 569.217 110.605L567.451 109.667ZM565.158 119.48C565.158 123.292 565.957 126.704 567.584 129.687L569.34 128.729C567.895 126.08 567.158 123.006 567.158 119.48H565.158ZM567.59 129.698C569.209 132.576 571.419 134.877 574.211 136.589L575.257 134.883C572.758 133.352 570.787 131.301 569.334 128.718L567.59 129.698ZM574.244 136.608C577.137 138.235 580.381 139.04 583.95 139.04V137.04C580.693 137.04 577.792 136.309 575.224 134.864L574.244 136.608ZM583.95 139.04C586.381 139.04 588.726 138.589 590.977 137.688L590.235 135.832C588.22 136.637 586.127 137.04 583.95 137.04V139.04ZM590.965 137.693C593.263 136.809 595.389 135.659 597.338 134.241L596.162 132.623C594.357 133.936 592.386 135.004 590.247 135.827L590.965 137.693ZM595.901 133.961L601.405 142.793L603.103 141.735L597.599 132.903L595.901 133.961ZM601.693 141.436C599.13 143.172 596.227 144.584 592.978 145.667L593.61 147.565C597.016 146.429 600.087 144.94 602.815 143.092L601.693 141.436ZM592.97 145.67C589.823 146.747 586.732 147.28 583.694 147.28V149.28C586.97 149.28 590.28 148.704 593.618 147.562L592.97 145.67ZM636.37 135.864L637.291 136.254L637.879 134.864H636.37V135.864ZM630.738 149.048L629.82 148.652L629.815 148.663L629.811 148.674L630.738 149.048ZM625.234 162.488V163.488H625.902L626.158 162.871L625.234 162.488ZM615.634 162.488L614.698 162.135L614.188 163.488H615.634V162.488ZM620.626 149.048L619.689 148.699L619.687 148.705L620.626 149.048ZM625.618 135.864V134.864H624.931L624.685 135.505L625.618 135.864ZM635.449 135.474C633.573 139.91 631.696 144.302 629.82 148.652L631.656 149.444C633.534 145.09 635.413 140.693 637.291 136.254L635.449 135.474ZM629.811 148.674C628.02 153.108 626.187 157.585 624.31 162.105L626.158 162.871C628.036 158.346 629.872 153.863 631.665 149.422L629.811 148.674ZM625.234 161.488H615.634V163.488H625.234V161.488ZM616.57 162.841C618.277 158.315 619.943 153.832 621.565 149.391L619.687 148.705C618.067 153.139 616.404 157.615 614.698 162.135L616.57 162.841ZM621.563 149.397C623.183 145.048 624.846 140.657 626.551 136.223L624.685 135.505C622.977 139.946 621.312 144.344 619.689 148.699L621.563 149.397ZM625.618 136.864H636.37V134.864H625.618V136.864Z" fill="black" mask="url(#path-2-outside-1_229_222)"/>
<path d="M42.509 286.28C37.5597 286.28 33.037 285.213 28.941 283.08C24.9303 280.947 21.7303 277.832 19.341 273.736C17.037 269.555 15.885 264.477 15.885 258.504C15.885 252.616 17.1223 247.539 19.597 243.272C22.0717 238.92 25.357 235.592 29.453 233.288C33.6343 230.984 38.1997 229.832 43.149 229.832C48.0983 229.832 52.2797 230.984 55.693 233.288C59.1063 235.507 61.709 238.152 63.501 241.224L62.733 243.272L63.885 232.008H74.893V285H62.989V271.176L64.269 274.248C63.9277 275.101 63.1597 276.211 61.965 277.576C60.8557 278.856 59.3197 280.179 57.357 281.544C55.4797 282.909 53.3037 284.061 50.829 285C48.3543 285.853 45.581 286.28 42.509 286.28ZM45.709 276.424C48.6957 276.424 51.3837 275.869 53.773 274.76C56.1623 273.651 58.125 272.115 59.661 270.152C61.2823 268.104 62.3917 265.672 62.989 262.856V252.488C62.3063 249.928 61.1117 247.709 59.405 245.832C57.6983 243.869 55.6503 242.376 53.261 241.352C50.8717 240.243 48.2263 239.688 45.325 239.688C42.1677 239.688 39.2663 240.456 36.621 241.992C33.9757 243.528 31.8423 245.661 30.221 248.392C28.685 251.123 27.917 254.323 27.917 257.992C27.917 261.405 28.7277 264.52 30.349 267.336C31.9703 270.152 34.1463 272.371 36.877 273.992C39.6077 275.613 42.5517 276.424 45.709 276.424Z" fill="url(#paint0_linear_229_222)"/>
<path d="M152.761 287.048C147.982 287.048 144.014 285.597 140.857 282.696C137.785 279.709 136.164 275.869 135.993 271.176V232.008H147.897V266.952C148.068 269.853 148.878 272.2 150.329 273.992C151.865 275.784 154.254 276.723 157.497 276.808C160.484 276.808 163.129 275.955 165.433 274.248C167.822 272.456 169.742 270.067 171.193 267.08C172.644 264.008 173.369 260.552 173.369 256.712V232.008H185.273V285H174.393L173.369 271.944L174.009 274.248C172.985 276.723 171.406 278.941 169.273 280.904C167.225 282.781 164.793 284.275 161.977 285.384C159.161 286.493 156.089 287.048 152.761 287.048ZM205.868 232.008H217.772V285H205.868V232.008ZM204.972 212.808C204.972 210.931 205.697 209.352 207.148 208.072C208.684 206.792 210.348 206.152 212.14 206.152C213.932 206.152 215.511 206.792 216.876 208.072C218.327 209.352 219.052 210.931 219.052 212.808C219.052 214.771 218.327 216.392 216.876 217.672C215.511 218.867 213.932 219.464 212.14 219.464C210.348 219.464 208.684 218.824 207.148 217.544C205.697 216.264 204.972 214.685 204.972 212.808ZM277.024 189.64C271.051 205.939 265.077 222.237 259.104 238.536C253.131 254.835 247.115 271.133 241.056 287.432H230.176C236.235 271.133 242.251 254.835 248.224 238.536C254.197 222.237 260.213 205.939 266.272 189.64H277.024ZM304.261 287.048C299.482 287.048 295.514 285.597 292.357 282.696C289.285 279.709 287.664 275.869 287.493 271.176V232.008H299.397V266.952C299.568 269.853 300.378 272.2 301.829 273.992C303.365 275.784 305.754 276.723 308.997 276.808C311.984 276.808 314.629 275.955 316.933 274.248C319.322 272.456 321.242 270.067 322.693 267.08C324.144 264.008 324.869 260.552 324.869 256.712V232.008H336.773V285H325.893L324.869 271.944L325.509 274.248C324.485 276.723 322.906 278.941 320.773 280.904C318.725 282.781 316.293 284.275 313.477 285.384C310.661 286.493 307.589 287.048 304.261 287.048ZM377.336 251.72L390.008 232.008H402.04L381.688 260.424L377.336 251.72ZM404.088 285H389.752L349.432 232.008H364.152L404.088 285ZM376.056 265.288L362.104 285H350.072L370.296 257.352L376.056 265.288ZM478.872 286.28C474.008 286.28 469.571 285.128 465.56 282.824C461.635 280.435 458.52 277.107 456.216 272.84C453.912 268.488 452.76 263.496 452.76 257.864C452.76 251.976 453.955 246.941 456.344 242.76C458.819 238.579 462.147 235.379 466.328 233.16C470.509 230.941 475.203 229.832 480.408 229.832C484.589 229.832 488.557 230.728 492.312 232.52C496.152 234.312 499.139 236.787 501.272 239.944L500.76 244.168V185.928H512.536V285H500.632V271.816L501.912 275.144C499.437 278.387 496.237 281.075 492.312 283.208C488.387 285.256 483.907 286.28 478.872 286.28ZM482.584 276.168C485.741 276.168 488.557 275.613 491.032 274.504C493.507 273.309 495.555 271.688 497.176 269.64C498.797 267.592 499.949 265.16 500.632 262.344V252.36C499.949 249.8 498.712 247.581 496.92 245.704C495.213 243.741 493.123 242.205 490.648 241.096C488.259 239.901 485.571 239.304 482.584 239.304C479.341 239.304 476.355 240.115 473.624 241.736C470.979 243.272 468.845 245.405 467.224 248.136C465.603 250.867 464.792 254.024 464.792 257.608C464.792 261.107 465.603 264.264 467.224 267.08C468.845 269.811 471.021 272.029 473.752 273.736C476.483 275.357 479.427 276.168 482.584 276.168ZM557.819 286.28C551.76 286.28 546.555 285.085 542.203 282.696C537.851 280.221 534.48 276.893 532.091 272.712C529.787 268.445 528.635 263.581 528.635 258.12C528.635 252.915 529.958 248.179 532.603 243.912C535.248 239.645 538.79 236.232 543.227 233.672C547.664 231.112 552.614 229.832 558.075 229.832C565.072 229.832 570.875 231.88 575.483 235.976C580.091 240.072 583.206 245.704 584.827 252.872L541.179 268.232L538.363 261.192L574.203 248.136L571.643 249.8C570.619 246.984 568.912 244.552 566.523 242.504C564.134 240.371 561.019 239.304 557.179 239.304C553.936 239.304 551.035 240.115 548.475 241.736C545.915 243.272 543.91 245.405 542.459 248.136C541.008 250.867 540.283 253.981 540.283 257.48C540.283 261.149 541.051 264.392 542.587 267.208C544.123 269.939 546.214 272.115 548.859 273.736C551.59 275.272 554.662 276.04 558.075 276.04C560.379 276.04 562.598 275.613 564.731 274.76C566.95 273.907 568.998 272.797 570.875 271.432L576.379 280.264C573.734 282.056 570.747 283.507 567.419 284.616C564.176 285.725 560.976 286.28 557.819 286.28ZM614.591 286.024C610.836 286.024 607.167 285.384 603.583 284.104C600.084 282.739 597.183 280.733 594.879 278.088L599.871 271.176C602.09 273.309 604.351 274.931 606.655 276.04C609.044 277.064 611.391 277.576 613.695 277.576C615.402 277.576 616.98 277.363 618.431 276.936C619.882 276.509 621.034 275.827 621.887 274.888C622.826 273.864 623.295 272.499 623.295 270.792C623.295 268.915 622.655 267.421 621.375 266.312C620.18 265.203 618.602 264.307 616.639 263.624C614.762 262.941 612.756 262.301 610.623 261.704C606.271 260.253 602.943 258.248 600.639 255.688C598.335 253.128 597.183 250.013 597.183 246.344C597.183 243.528 597.866 240.925 599.231 238.536C600.682 236.061 602.772 234.056 605.503 232.52C608.319 230.984 611.775 230.216 615.871 230.216C619.54 230.216 622.826 230.685 625.727 231.624C628.628 232.477 631.359 233.928 633.919 235.976L629.183 243.4C627.647 241.779 625.812 240.584 623.679 239.816C621.546 239.048 619.626 238.621 617.919 238.536C616.468 238.451 615.06 238.664 613.695 239.176C612.415 239.688 611.348 240.413 610.495 241.352C609.642 242.291 609.215 243.4 609.215 244.68C609.215 246.472 609.812 247.923 611.007 249.032C612.202 250.141 613.738 251.037 615.615 251.72C617.578 252.317 619.498 252.957 621.375 253.64C624.02 254.408 626.367 255.432 628.415 256.712C630.463 257.992 632.084 259.571 633.279 261.448C634.559 263.325 635.199 265.672 635.199 268.488C635.199 271.645 634.431 274.589 632.895 277.32C631.444 279.965 629.183 282.099 626.111 283.72C623.124 285.256 619.284 286.024 614.591 286.024ZM651.868 232.008H663.772V285H651.868V232.008ZM650.972 212.808C650.972 210.931 651.697 209.352 653.148 208.072C654.684 206.792 656.348 206.152 658.14 206.152C659.932 206.152 661.511 206.792 662.876 208.072C664.327 209.352 665.052 210.931 665.052 212.808C665.052 214.771 664.327 216.392 662.876 217.672C661.511 218.867 659.932 219.464 658.14 219.464C656.348 219.464 654.684 218.824 653.148 217.544C651.697 216.264 650.972 214.685 650.972 212.808ZM709.84 311.24C705.915 311.24 702.459 310.771 699.472 309.832C696.485 308.979 693.755 307.741 691.28 306.12C688.891 304.499 686.587 302.664 684.368 300.616L691.28 292.552C694.096 295.197 696.955 297.245 699.856 298.696C702.757 300.147 706 300.872 709.584 300.872C713.595 300.872 716.965 300.189 719.696 298.824C722.512 297.544 724.645 295.709 726.096 293.32C727.547 291.016 728.272 288.328 728.272 285.256L728.4 270.92L729.424 273.224C727.888 276.893 725.115 280.008 721.104 282.568C717.093 285.043 712.229 286.28 706.512 286.28C701.648 286.28 697.168 285.043 693.072 282.568C689.061 280.093 685.819 276.765 683.344 272.584C680.955 268.317 679.76 263.539 679.76 258.248C679.76 252.701 681.04 247.837 683.6 243.656C686.16 239.389 689.531 236.019 693.712 233.544C697.893 231.069 702.459 229.832 707.408 229.832C712.101 229.832 716.368 230.813 720.208 232.776C724.133 234.653 726.992 237.085 728.784 240.072L728.144 242.248L729.424 232.008H740.304V285.384C740.304 290.163 739.067 294.515 736.592 298.44C734.117 302.365 730.619 305.48 726.096 307.784C721.573 310.088 716.155 311.24 709.84 311.24ZM691.664 257.992C691.664 261.405 692.475 264.52 694.096 267.336C695.717 270.152 697.893 272.371 700.624 273.992C703.44 275.613 706.555 276.424 709.968 276.424C713.125 276.424 715.941 275.869 718.416 274.76C720.976 273.565 723.109 271.987 724.816 270.024C726.523 267.976 727.717 265.629 728.4 262.984V252.488C727.632 249.928 726.352 247.709 724.56 245.832C722.768 243.869 720.635 242.376 718.16 241.352C715.685 240.243 712.955 239.688 709.968 239.688C706.555 239.688 703.44 240.456 700.624 241.992C697.893 243.528 695.717 245.704 694.096 248.52C692.475 251.251 691.664 254.408 691.664 257.992ZM771.492 232.008L772.516 244.936L772.004 242.888C773.711 238.963 776.484 235.848 780.324 233.544C784.164 231.155 788.601 229.96 793.636 229.96C798.671 229.96 802.767 231.453 805.924 234.44C809.167 237.341 810.831 241.139 810.916 245.832V285H798.884V250.056C798.799 247.155 797.945 244.808 796.324 243.016C794.788 241.139 792.356 240.2 789.028 240.2C785.956 240.2 783.183 241.053 780.708 242.76C778.233 244.467 776.271 246.813 774.82 249.8C773.455 252.787 772.772 256.243 772.772 260.168V285H760.868V232.008H771.492ZM856.194 286.28C850.135 286.28 844.93 285.085 840.578 282.696C836.226 280.221 832.855 276.893 830.466 272.712C828.162 268.445 827.01 263.581 827.01 258.12C827.01 252.915 828.333 248.179 830.978 243.912C833.623 239.645 837.165 236.232 841.602 233.672C846.039 231.112 850.989 229.832 856.45 229.832C863.447 229.832 869.25 231.88 873.858 235.976C878.466 240.072 881.581 245.704 883.202 252.872L839.554 268.232L836.738 261.192L872.578 248.136L870.018 249.8C868.994 246.984 867.287 244.552 864.898 242.504C862.509 240.371 859.394 239.304 855.554 239.304C852.311 239.304 849.41 240.115 846.85 241.736C844.29 243.272 842.285 245.405 840.834 248.136C839.383 250.867 838.658 253.981 838.658 257.48C838.658 261.149 839.426 264.392 840.962 267.208C842.498 269.939 844.589 272.115 847.234 273.736C849.965 275.272 853.037 276.04 856.45 276.04C858.754 276.04 860.973 275.613 863.106 274.76C865.325 273.907 867.373 272.797 869.25 271.432L874.754 280.264C872.109 282.056 869.122 283.507 865.794 284.616C862.551 285.725 859.351 286.28 856.194 286.28ZM908.742 232.008L909.894 247.368L909.254 245.32C910.619 242.077 912.582 239.347 915.142 237.128C917.787 234.824 920.518 233.075 923.334 231.88C926.235 230.6 928.753 229.96 930.886 229.96L930.246 241.736C926.235 241.48 922.694 242.248 919.622 244.04C916.635 245.832 914.246 248.221 912.454 251.208C910.747 254.195 909.894 257.395 909.894 260.808V285H898.118V232.008H908.742ZM934.727 278.216C934.727 276.339 935.41 274.76 936.775 273.48C938.226 272.115 939.804 271.432 941.511 271.432C943.047 271.432 944.498 272.115 945.863 273.48C947.314 274.76 948.039 276.339 948.039 278.216C948.039 280.264 947.314 281.928 945.863 283.208C944.498 284.403 943.047 285 941.511 285C939.804 285 938.226 284.403 936.775 283.208C935.41 281.928 934.727 280.264 934.727 278.216Z" fill="url(#paint1_linear_229_222)"/>
<defs>
<linearGradient id="paint0_linear_229_222" x1="10" y1="253" x2="1008.95" y2="253" gradientUnits="userSpaceOnUse">
<stop stop-color="white"/>
<stop offset="1" stop-color="#4FD1FF"/>
</linearGradient>
<linearGradient id="paint1_linear_229_222" x1="10" y1="253" x2="1008.95" y2="253" gradientUnits="userSpaceOnUse">
<stop stop-color="#C25FFF"/>
<stop offset="1" stop-color="#4FD1FF"/>
</linearGradient>
</defs>
</svg>
