<svg width="1014" height="433" viewBox="0 0 1014 433" fill="none" xmlns="http://www.w3.org/2000/svg">
<path d="M3.24 100.5V69.54H6.88V87.78L6.8 87.1C7.36 86.0067 8.21333 85.1 9.36 84.38C10.5333 83.66 11.9067 83.3 13.48 83.3C15.0533 83.3 16.3333 83.7667 17.32 84.7C18.3333 85.6067 18.8533 86.7933 18.88 88.26V100.5H15.12V89.58C15.0933 88.6733 14.8267 87.94 14.32 87.38C13.84 86.7933 13.08 86.5 12.04 86.5C11.08 86.5 10.2133 86.78 9.44 87.34C8.66667 87.8733 8.05333 88.6067 7.6 89.54C7.17333 90.4733 6.96 91.54 6.96 92.74V100.5H3.24ZM33.0294 100.9C31.136 100.9 29.5094 100.527 28.1494 99.78C26.7894 99.0067 25.736 97.9667 24.9894 96.66C24.2694 95.3267 23.9094 93.8067 23.9094 92.1C23.9094 90.4733 24.3227 88.9933 25.1494 87.66C25.976 86.3267 27.0827 85.26 28.4694 84.46C29.856 83.66 31.4027 83.26 33.1094 83.26C35.296 83.26 37.1094 83.9 38.5494 85.18C39.9894 86.46 40.9627 88.22 41.4694 90.46L27.8294 95.26L26.9494 93.06L38.1494 88.98L37.3494 89.5C37.0294 88.62 36.496 87.86 35.7494 87.22C35.0027 86.5533 34.0294 86.22 32.8294 86.22C31.816 86.22 30.9094 86.4733 30.1094 86.98C29.3094 87.46 28.6827 88.1267 28.2294 88.98C27.776 89.8333 27.5494 90.8067 27.5494 91.9C27.5494 93.0467 27.7894 94.06 28.2694 94.94C28.7494 95.7933 29.4027 96.4733 30.2294 96.98C31.0827 97.46 32.0427 97.7 33.1094 97.7C33.8294 97.7 34.5227 97.5667 35.1894 97.3C35.8827 97.0333 36.5227 96.6867 37.1094 96.26L38.8294 99.02C38.0027 99.58 37.0694 100.033 36.0294 100.38C35.016 100.727 34.016 100.9 33.0294 100.9ZM46.1306 69.54H49.8506V100.5H46.1306V69.54ZM56.2869 69.54H60.0069V100.5H56.2869V69.54ZM65.0031 92.06C65.0031 90.4067 65.3898 88.9133 66.1631 87.58C66.9631 86.2467 68.0565 85.1933 69.4431 84.42C70.8298 83.6467 72.4031 83.26 74.1631 83.26C75.9765 83.26 77.5631 83.6467 78.9231 84.42C80.2831 85.1933 81.3365 86.2467 82.0831 87.58C82.8298 88.9133 83.2031 90.4067 83.2031 92.06C83.2031 93.7133 82.8298 95.22 82.0831 96.58C81.3365 97.9133 80.2698 98.9667 78.8831 99.74C77.5231 100.513 75.9365 100.9 74.1231 100.9C72.3631 100.9 70.7898 100.54 69.4031 99.82C68.0431 99.0733 66.9631 98.0467 66.1631 96.74C65.3898 95.4067 65.0031 93.8467 65.0031 92.06ZM68.7231 92.1C68.7231 93.1667 68.9631 94.14 69.4431 95.02C69.9231 95.8733 70.5631 96.5533 71.3631 97.06C72.1898 97.5667 73.0965 97.82 74.0831 97.82C75.1231 97.82 76.0431 97.5667 76.8431 97.06C77.6698 96.5533 78.3098 95.8733 78.7631 95.02C79.2165 94.14 79.4431 93.1667 79.4431 92.1C79.4431 91.0333 79.2165 90.0733 78.7631 89.22C78.3098 88.34 77.6698 87.6467 76.8431 87.14C76.0431 86.6067 75.1231 86.34 74.0831 86.34C73.0698 86.34 72.1498 86.6067 71.3231 87.14C70.5231 87.6733 69.8831 88.38 69.4031 89.26C68.9498 90.1133 68.7231 91.06 68.7231 92.1ZM102.496 76.66H106.216V84.02H110.776V86.94H106.216V100.5H102.496V86.94H99.4563V84.02H102.496V76.66ZM115.271 100.5V69.54H118.911V87.78L118.831 87.1C119.391 86.0067 120.245 85.1 121.391 84.38C122.565 83.66 123.938 83.3 125.511 83.3C127.085 83.3 128.365 83.7667 129.351 84.7C130.365 85.6067 130.885 86.7933 130.911 88.26V100.5H127.151V89.58C127.125 88.6733 126.858 87.94 126.351 87.38C125.871 86.7933 125.111 86.5 124.071 86.5C123.111 86.5 122.245 86.78 121.471 87.34C120.698 87.8733 120.085 88.6067 119.631 89.54C119.205 90.4733 118.991 91.54 118.991 92.74V100.5H115.271ZM145.061 100.9C143.167 100.9 141.541 100.527 140.181 99.78C138.821 99.0067 137.767 97.9667 137.021 96.66C136.301 95.3267 135.941 93.8067 135.941 92.1C135.941 90.4733 136.354 88.9933 137.181 87.66C138.007 86.3267 139.114 85.26 140.501 84.46C141.887 83.66 143.434 83.26 145.141 83.26C147.327 83.26 149.141 83.9 150.581 85.18C152.021 86.46 152.994 88.22 153.501 90.46L139.861 95.26L138.981 93.06L150.181 88.98L149.381 89.5C149.061 88.62 148.527 87.86 147.781 87.22C147.034 86.5533 146.061 86.22 144.861 86.22C143.847 86.22 142.941 86.4733 142.141 86.98C141.341 87.46 140.714 88.1267 140.261 88.98C139.807 89.8333 139.581 90.8067 139.581 91.9C139.581 93.0467 139.821 94.06 140.301 94.94C140.781 95.7933 141.434 96.4733 142.261 96.98C143.114 97.46 144.074 97.7 145.141 97.7C145.861 97.7 146.554 97.5667 147.221 97.3C147.914 97.0333 148.554 96.6867 149.141 96.26L150.861 99.02C150.034 99.58 149.101 100.033 148.061 100.38C147.047 100.727 146.047 100.9 145.061 100.9ZM161.482 83.94L161.842 88.74L161.642 88.1C162.069 87.0867 162.682 86.2333 163.482 85.54C164.309 84.82 165.162 84.2733 166.042 83.9C166.949 83.5 167.735 83.3 168.402 83.3L168.202 86.98C166.949 86.9 165.842 87.14 164.882 87.7C163.949 88.26 163.202 89.0067 162.642 89.94C162.109 90.8733 161.842 91.8733 161.842 92.94V100.5H158.162V83.94H161.482ZM180.178 100.9C178.284 100.9 176.658 100.527 175.298 99.78C173.938 99.0067 172.884 97.9667 172.138 96.66C171.418 95.3267 171.058 93.8067 171.058 92.1C171.058 90.4733 171.471 88.9933 172.298 87.66C173.124 86.3267 174.231 85.26 175.618 84.46C177.004 83.66 178.551 83.26 180.258 83.26C182.444 83.26 184.258 83.9 185.698 85.18C187.138 86.46 188.111 88.22 188.618 90.46L174.978 95.26L174.098 93.06L185.298 88.98L184.498 89.5C184.178 88.62 183.644 87.86 182.898 87.22C182.151 86.5533 181.178 86.22 179.978 86.22C178.964 86.22 178.058 86.4733 177.258 86.98C176.458 87.46 175.831 88.1267 175.378 88.98C174.924 89.8333 174.698 90.8067 174.698 91.9C174.698 93.0467 174.938 94.06 175.418 94.94C175.898 95.7933 176.551 96.4733 177.378 96.98C178.231 97.46 179.191 97.7 180.258 97.7C180.978 97.7 181.671 97.5667 182.338 97.3C183.031 97.0333 183.671 96.6867 184.258 96.26L185.978 99.02C185.151 99.58 184.218 100.033 183.178 100.38C182.164 100.727 181.164 100.9 180.178 100.9ZM192.319 70.14H195.679V93.02H192.319V70.14ZM194.119 100.34C193.426 100.34 192.852 100.14 192.399 99.74C191.946 99.34 191.719 98.8333 191.719 98.22C191.719 97.6067 191.946 97.1 192.399 96.7C192.852 96.2733 193.426 96.06 194.119 96.06C194.786 96.06 195.332 96.2733 195.759 96.7C196.212 97.1 196.439 97.6067 196.439 98.22C196.439 98.8333 196.212 99.34 195.759 99.74C195.332 100.14 194.786 100.34 194.119 100.34Z" fill="white"/>
<mask id="path-2-outside-1_441_117" maskUnits="userSpaceOnUse" x="8" y="115.5" width="620" height="118" fill="black">
<rect fill="white" x="8" y="115.5" width="620" height="118"/>
<path d="M10.368 163.508H22.272V216.5H10.368V163.508ZM9.472 144.308C9.472 142.431 10.1973 140.852 11.648 139.572C13.184 138.292 14.848 137.652 16.64 137.652C18.432 137.652 20.0107 138.292 21.376 139.572C22.8267 140.852 23.552 142.431 23.552 144.308C23.552 146.271 22.8267 147.892 21.376 149.172C20.0107 150.367 18.432 150.964 16.64 150.964C14.848 150.964 13.184 150.324 11.648 149.044C10.1973 147.764 9.472 146.185 9.472 144.308ZM42.996 144.308L36.98 141.236C38.772 139.529 40.18 137.183 41.204 134.196C42.3133 131.209 42.5693 128.223 41.972 125.236L51.444 124.34C51.956 126.729 51.8707 129.247 51.188 131.892C50.5053 134.452 49.4387 136.841 47.988 139.06C46.5373 141.279 44.8733 143.028 42.996 144.308ZM77.117 163.508L78.141 175.412L77.629 174.388C79.5917 170.377 82.365 167.22 85.949 164.916C89.6183 162.612 93.7997 161.46 98.493 161.46C101.48 161.46 104.125 161.929 106.429 162.868C108.733 163.807 110.61 165.172 112.061 166.964C113.597 168.671 114.578 170.804 115.005 173.364L114.365 173.748C116.413 169.908 119.229 166.921 122.813 164.788C126.482 162.569 130.322 161.46 134.333 161.46C139.538 161.46 143.634 162.953 146.621 165.94C149.693 168.841 151.272 172.639 151.357 177.332V216.5H139.453V181.556C139.368 178.825 138.685 176.564 137.405 174.772C136.21 172.895 134.077 171.871 131.005 171.7C127.933 171.7 125.16 172.639 122.685 174.516C120.296 176.393 118.418 178.825 117.053 181.812C115.688 184.713 114.962 187.871 114.877 191.284V216.5H102.973V181.556C102.888 178.825 102.162 176.564 100.797 174.772C99.517 172.895 97.341 171.871 94.269 171.7C91.1117 171.7 88.3383 172.639 85.949 174.516C83.5597 176.393 81.6823 178.825 80.317 181.812C79.037 184.799 78.397 187.999 78.397 191.412V216.5H66.493V163.508H77.117ZM255.626 211.636C253.237 213.513 250.378 215.007 247.05 216.116C243.722 217.225 240.394 217.78 237.066 217.78C231.263 217.78 226.186 216.628 221.834 214.324C217.482 212.02 214.069 208.82 211.594 204.724C209.205 200.543 208.01 195.636 208.01 190.004C208.01 184.372 209.29 179.465 211.85 175.284C214.495 171.103 217.909 167.903 222.09 165.684C226.357 163.38 230.922 162.228 235.786 162.228C240.053 162.228 243.85 162.825 247.178 164.02C250.591 165.215 253.493 166.836 255.882 168.884L249.994 176.564C248.458 175.369 246.581 174.303 244.362 173.364C242.143 172.425 239.626 171.956 236.81 171.956C233.738 171.956 230.879 172.767 228.234 174.388C225.674 175.924 223.626 178.057 222.09 180.788C220.639 183.519 219.914 186.591 219.914 190.004C219.914 193.247 220.682 196.276 222.218 199.092C223.754 201.823 225.887 203.999 228.618 205.62C231.349 207.156 234.463 207.924 237.962 207.924C240.266 207.924 242.357 207.583 244.234 206.9C246.197 206.217 247.946 205.279 249.482 204.084L255.626 211.636ZM293.009 217.78C288.06 217.78 283.537 216.713 279.441 214.58C275.43 212.447 272.23 209.332 269.841 205.236C267.537 201.055 266.385 195.977 266.385 190.004C266.385 184.116 267.622 179.039 270.097 174.772C272.572 170.42 275.857 167.092 279.953 164.788C284.134 162.484 288.7 161.332 293.649 161.332C298.598 161.332 302.78 162.484 306.193 164.788C309.606 167.007 312.209 169.652 314.001 172.724L313.233 174.772L314.385 163.508H325.393V216.5H313.489V202.676L314.769 205.748C314.428 206.601 313.66 207.711 312.465 209.076C311.356 210.356 309.82 211.679 307.857 213.044C305.98 214.409 303.804 215.561 301.329 216.5C298.854 217.353 296.081 217.78 293.009 217.78ZM296.209 207.924C299.196 207.924 301.884 207.369 304.273 206.26C306.662 205.151 308.625 203.615 310.161 201.652C311.782 199.604 312.892 197.172 313.489 194.356V183.988C312.806 181.428 311.612 179.209 309.905 177.332C308.198 175.369 306.15 173.876 303.761 172.852C301.372 171.743 298.726 171.188 295.825 171.188C292.668 171.188 289.766 171.956 287.121 173.492C284.476 175.028 282.342 177.161 280.721 179.892C279.185 182.623 278.417 185.823 278.417 189.492C278.417 192.905 279.228 196.02 280.849 198.836C282.47 201.652 284.646 203.871 287.377 205.492C290.108 207.113 293.052 207.924 296.209 207.924ZM356.617 163.508L357.641 175.412L357.129 174.388C359.092 170.377 361.865 167.22 365.449 164.916C369.118 162.612 373.3 161.46 377.993 161.46C380.98 161.46 383.625 161.929 385.929 162.868C388.233 163.807 390.11 165.172 391.561 166.964C393.097 168.671 394.078 170.804 394.505 173.364L393.865 173.748C395.913 169.908 398.729 166.921 402.313 164.788C405.982 162.569 409.822 161.46 413.833 161.46C419.038 161.46 423.134 162.953 426.121 165.94C429.193 168.841 430.772 172.639 430.857 177.332V216.5H418.953V181.556C418.868 178.825 418.185 176.564 416.905 174.772C415.71 172.895 413.577 171.871 410.505 171.7C407.433 171.7 404.66 172.639 402.185 174.516C399.796 176.393 397.918 178.825 396.553 181.812C395.188 184.713 394.462 187.871 394.377 191.284V216.5H382.473V181.556C382.388 178.825 381.662 176.564 380.297 174.772C379.017 172.895 376.841 171.871 373.769 171.7C370.612 171.7 367.838 172.639 365.449 174.516C363.06 176.393 361.182 178.825 359.817 181.812C358.537 184.799 357.897 187.999 357.897 191.412V216.5H345.993V163.508H356.617ZM451.618 163.508H463.522V216.5H451.618V163.508ZM450.722 144.308C450.722 142.431 451.447 140.852 452.898 139.572C454.434 138.292 456.098 137.652 457.89 137.652C459.682 137.652 461.261 138.292 462.626 139.572C464.077 140.852 464.802 142.431 464.802 144.308C464.802 146.271 464.077 147.892 462.626 149.172C461.261 150.367 459.682 150.964 457.89 150.964C456.098 150.964 454.434 150.324 452.898 149.044C451.447 147.764 450.722 146.185 450.722 144.308ZM484.118 117.428H496.022V216.5H484.118V117.428ZM516.618 117.428H528.522V216.5H516.618V117.428ZM573.694 217.78C567.635 217.78 562.43 216.585 558.078 214.196C553.726 211.721 550.355 208.393 547.966 204.212C545.662 199.945 544.51 195.081 544.51 189.62C544.51 184.415 545.833 179.679 548.478 175.412C551.123 171.145 554.665 167.732 559.102 165.172C563.539 162.612 568.489 161.332 573.95 161.332C580.947 161.332 586.75 163.38 591.358 167.476C595.966 171.572 599.081 177.204 600.702 184.372L557.054 199.732L554.238 192.692L590.078 179.636L587.518 181.3C586.494 178.484 584.787 176.052 582.398 174.004C580.009 171.871 576.894 170.804 573.054 170.804C569.811 170.804 566.91 171.615 564.35 173.236C561.79 174.772 559.785 176.905 558.334 179.636C556.883 182.367 556.158 185.481 556.158 188.98C556.158 192.649 556.926 195.892 558.462 198.708C559.998 201.439 562.089 203.615 564.734 205.236C567.465 206.772 570.537 207.54 573.95 207.54C576.254 207.54 578.473 207.113 580.606 206.26C582.825 205.407 584.873 204.297 586.75 202.932L592.254 211.764C589.609 213.556 586.622 215.007 583.294 216.116C580.051 217.225 576.851 217.78 573.694 217.78ZM626.37 205.364C624.493 209.801 622.615 214.196 620.738 218.548C618.946 222.985 617.111 227.465 615.234 231.988H605.634C607.341 227.465 609.005 222.985 610.626 218.548C612.247 214.196 613.911 209.801 615.618 205.364H626.37Z"/>
</mask>
<path d="M10.368 163.508H22.272V216.5H10.368V163.508ZM9.472 144.308C9.472 142.431 10.1973 140.852 11.648 139.572C13.184 138.292 14.848 137.652 16.64 137.652C18.432 137.652 20.0107 138.292 21.376 139.572C22.8267 140.852 23.552 142.431 23.552 144.308C23.552 146.271 22.8267 147.892 21.376 149.172C20.0107 150.367 18.432 150.964 16.64 150.964C14.848 150.964 13.184 150.324 11.648 149.044C10.1973 147.764 9.472 146.185 9.472 144.308ZM42.996 144.308L36.98 141.236C38.772 139.529 40.18 137.183 41.204 134.196C42.3133 131.209 42.5693 128.223 41.972 125.236L51.444 124.34C51.956 126.729 51.8707 129.247 51.188 131.892C50.5053 134.452 49.4387 136.841 47.988 139.06C46.5373 141.279 44.8733 143.028 42.996 144.308ZM77.117 163.508L78.141 175.412L77.629 174.388C79.5917 170.377 82.365 167.22 85.949 164.916C89.6183 162.612 93.7997 161.46 98.493 161.46C101.48 161.46 104.125 161.929 106.429 162.868C108.733 163.807 110.61 165.172 112.061 166.964C113.597 168.671 114.578 170.804 115.005 173.364L114.365 173.748C116.413 169.908 119.229 166.921 122.813 164.788C126.482 162.569 130.322 161.46 134.333 161.46C139.538 161.46 143.634 162.953 146.621 165.94C149.693 168.841 151.272 172.639 151.357 177.332V216.5H139.453V181.556C139.368 178.825 138.685 176.564 137.405 174.772C136.21 172.895 134.077 171.871 131.005 171.7C127.933 171.7 125.16 172.639 122.685 174.516C120.296 176.393 118.418 178.825 117.053 181.812C115.688 184.713 114.962 187.871 114.877 191.284V216.5H102.973V181.556C102.888 178.825 102.162 176.564 100.797 174.772C99.517 172.895 97.341 171.871 94.269 171.7C91.1117 171.7 88.3383 172.639 85.949 174.516C83.5597 176.393 81.6823 178.825 80.317 181.812C79.037 184.799 78.397 187.999 78.397 191.412V216.5H66.493V163.508H77.117ZM255.626 211.636C253.237 213.513 250.378 215.007 247.05 216.116C243.722 217.225 240.394 217.78 237.066 217.78C231.263 217.78 226.186 216.628 221.834 214.324C217.482 212.02 214.069 208.82 211.594 204.724C209.205 200.543 208.01 195.636 208.01 190.004C208.01 184.372 209.29 179.465 211.85 175.284C214.495 171.103 217.909 167.903 222.09 165.684C226.357 163.38 230.922 162.228 235.786 162.228C240.053 162.228 243.85 162.825 247.178 164.02C250.591 165.215 253.493 166.836 255.882 168.884L249.994 176.564C248.458 175.369 246.581 174.303 244.362 173.364C242.143 172.425 239.626 171.956 236.81 171.956C233.738 171.956 230.879 172.767 228.234 174.388C225.674 175.924 223.626 178.057 222.09 180.788C220.639 183.519 219.914 186.591 219.914 190.004C219.914 193.247 220.682 196.276 222.218 199.092C223.754 201.823 225.887 203.999 228.618 205.62C231.349 207.156 234.463 207.924 237.962 207.924C240.266 207.924 242.357 207.583 244.234 206.9C246.197 206.217 247.946 205.279 249.482 204.084L255.626 211.636ZM293.009 217.78C288.06 217.78 283.537 216.713 279.441 214.58C275.43 212.447 272.23 209.332 269.841 205.236C267.537 201.055 266.385 195.977 266.385 190.004C266.385 184.116 267.622 179.039 270.097 174.772C272.572 170.42 275.857 167.092 279.953 164.788C284.134 162.484 288.7 161.332 293.649 161.332C298.598 161.332 302.78 162.484 306.193 164.788C309.606 167.007 312.209 169.652 314.001 172.724L313.233 174.772L314.385 163.508H325.393V216.5H313.489V202.676L314.769 205.748C314.428 206.601 313.66 207.711 312.465 209.076C311.356 210.356 309.82 211.679 307.857 213.044C305.98 214.409 303.804 215.561 301.329 216.5C298.854 217.353 296.081 217.78 293.009 217.78ZM296.209 207.924C299.196 207.924 301.884 207.369 304.273 206.26C306.662 205.151 308.625 203.615 310.161 201.652C311.782 199.604 312.892 197.172 313.489 194.356V183.988C312.806 181.428 311.612 179.209 309.905 177.332C308.198 175.369 306.15 173.876 303.761 172.852C301.372 171.743 298.726 171.188 295.825 171.188C292.668 171.188 289.766 171.956 287.121 173.492C284.476 175.028 282.342 177.161 280.721 179.892C279.185 182.623 278.417 185.823 278.417 189.492C278.417 192.905 279.228 196.02 280.849 198.836C282.47 201.652 284.646 203.871 287.377 205.492C290.108 207.113 293.052 207.924 296.209 207.924ZM356.617 163.508L357.641 175.412L357.129 174.388C359.092 170.377 361.865 167.22 365.449 164.916C369.118 162.612 373.3 161.46 377.993 161.46C380.98 161.46 383.625 161.929 385.929 162.868C388.233 163.807 390.11 165.172 391.561 166.964C393.097 168.671 394.078 170.804 394.505 173.364L393.865 173.748C395.913 169.908 398.729 166.921 402.313 164.788C405.982 162.569 409.822 161.46 413.833 161.46C419.038 161.46 423.134 162.953 426.121 165.94C429.193 168.841 430.772 172.639 430.857 177.332V216.5H418.953V181.556C418.868 178.825 418.185 176.564 416.905 174.772C415.71 172.895 413.577 171.871 410.505 171.7C407.433 171.7 404.66 172.639 402.185 174.516C399.796 176.393 397.918 178.825 396.553 181.812C395.188 184.713 394.462 187.871 394.377 191.284V216.5H382.473V181.556C382.388 178.825 381.662 176.564 380.297 174.772C379.017 172.895 376.841 171.871 373.769 171.7C370.612 171.7 367.838 172.639 365.449 174.516C363.06 176.393 361.182 178.825 359.817 181.812C358.537 184.799 357.897 187.999 357.897 191.412V216.5H345.993V163.508H356.617ZM451.618 163.508H463.522V216.5H451.618V163.508ZM450.722 144.308C450.722 142.431 451.447 140.852 452.898 139.572C454.434 138.292 456.098 137.652 457.89 137.652C459.682 137.652 461.261 138.292 462.626 139.572C464.077 140.852 464.802 142.431 464.802 144.308C464.802 146.271 464.077 147.892 462.626 149.172C461.261 150.367 459.682 150.964 457.89 150.964C456.098 150.964 454.434 150.324 452.898 149.044C451.447 147.764 450.722 146.185 450.722 144.308ZM484.118 117.428H496.022V216.5H484.118V117.428ZM516.618 117.428H528.522V216.5H516.618V117.428ZM573.694 217.78C567.635 217.78 562.43 216.585 558.078 214.196C553.726 211.721 550.355 208.393 547.966 204.212C545.662 199.945 544.51 195.081 544.51 189.62C544.51 184.415 545.833 179.679 548.478 175.412C551.123 171.145 554.665 167.732 559.102 165.172C563.539 162.612 568.489 161.332 573.95 161.332C580.947 161.332 586.75 163.38 591.358 167.476C595.966 171.572 599.081 177.204 600.702 184.372L557.054 199.732L554.238 192.692L590.078 179.636L587.518 181.3C586.494 178.484 584.787 176.052 582.398 174.004C580.009 171.871 576.894 170.804 573.054 170.804C569.811 170.804 566.91 171.615 564.35 173.236C561.79 174.772 559.785 176.905 558.334 179.636C556.883 182.367 556.158 185.481 556.158 188.98C556.158 192.649 556.926 195.892 558.462 198.708C559.998 201.439 562.089 203.615 564.734 205.236C567.465 206.772 570.537 207.54 573.95 207.54C576.254 207.54 578.473 207.113 580.606 206.26C582.825 205.407 584.873 204.297 586.75 202.932L592.254 211.764C589.609 213.556 586.622 215.007 583.294 216.116C580.051 217.225 576.851 217.78 573.694 217.78ZM626.37 205.364C624.493 209.801 622.615 214.196 620.738 218.548C618.946 222.985 617.111 227.465 615.234 231.988H605.634C607.341 227.465 609.005 222.985 610.626 218.548C612.247 214.196 613.911 209.801 615.618 205.364H626.37Z" fill="white"/>
<path d="M10.368 163.508V162.508H9.368V163.508H10.368ZM22.272 163.508H23.272V162.508H22.272V163.508ZM22.272 216.5V217.5H23.272V216.5H22.272ZM10.368 216.5H9.368V217.5H10.368V216.5ZM11.648 139.572L11.0078 138.804L10.997 138.813L10.9864 138.822L11.648 139.572ZM21.376 139.572L20.6921 140.302L20.7031 140.312L20.7144 140.322L21.376 139.572ZM21.376 149.172L22.0345 149.925L22.0376 149.922L21.376 149.172ZM11.648 149.044L10.9864 149.794L10.997 149.803L11.0078 149.812L11.648 149.044ZM10.368 164.508H22.272V162.508H10.368V164.508ZM21.272 163.508V216.5H23.272V163.508H21.272ZM22.272 215.5H10.368V217.5H22.272V215.5ZM11.368 216.5V163.508H9.368V216.5H11.368ZM10.472 144.308C10.472 142.727 11.0666 141.419 12.3096 140.322L10.9864 138.822C9.32807 140.285 8.472 142.134 8.472 144.308H10.472ZM12.2882 140.34C13.6666 139.192 15.1093 138.652 16.64 138.652V136.652C14.5867 136.652 12.7014 137.392 11.0078 138.804L12.2882 140.34ZM16.64 138.652C18.1658 138.652 19.503 139.187 20.6921 140.302L22.0599 138.842C20.5183 137.397 18.6982 136.652 16.64 136.652V138.652ZM20.7144 140.322C21.9574 141.419 22.552 142.727 22.552 144.308H24.552C24.552 142.134 23.6959 140.285 22.0376 138.822L20.7144 140.322ZM22.552 144.308C22.552 145.989 21.9464 147.335 20.7144 148.422L22.0376 149.922C23.707 148.449 24.552 146.553 24.552 144.308H22.552ZM20.7175 148.419C19.532 149.457 18.1865 149.964 16.64 149.964V151.964C18.6775 151.964 20.4894 151.277 22.0345 149.925L20.7175 148.419ZM16.64 149.964C15.1093 149.964 13.6666 149.424 12.2882 148.276L11.0078 149.812C12.7014 151.224 14.5868 151.964 16.64 151.964V149.964ZM12.3096 148.294C11.0666 147.197 10.472 145.889 10.472 144.308H8.472C8.472 146.482 9.32807 148.331 10.9864 149.794L12.3096 148.294ZM42.996 144.308L42.5412 145.199L43.0694 145.468L43.5593 145.134L42.996 144.308ZM36.98 141.236L36.2903 140.512L35.2686 141.485L36.5252 142.127L36.98 141.236ZM41.204 134.196L40.2666 133.848L40.2622 133.86L40.2581 133.872L41.204 134.196ZM41.972 125.236L41.8778 124.24L40.774 124.345L40.9914 125.432L41.972 125.236ZM51.444 124.34L52.4218 124.13L52.2354 123.261L51.3498 123.344L51.444 124.34ZM51.188 131.892L52.1543 132.15L52.1563 132.142L51.188 131.892ZM47.988 139.06L48.825 139.607L48.825 139.607L47.988 139.06ZM43.4508 143.417L37.4348 140.345L36.5252 142.127L42.5412 145.199L43.4508 143.417ZM37.6697 141.96C39.6056 140.116 41.0878 137.618 42.1499 134.52L40.2581 133.872C39.2722 136.747 37.9384 138.942 36.2903 140.512L37.6697 141.96ZM42.1414 134.544C43.3122 131.392 43.588 128.217 42.9526 125.04L40.9914 125.432C41.5507 128.228 41.3144 131.027 40.2666 133.848L42.1414 134.544ZM42.0662 126.232L51.5382 125.336L51.3498 123.344L41.8778 124.24L42.0662 126.232ZM50.4662 124.55C50.942 126.77 50.8682 129.129 50.2197 131.642L52.1563 132.142C52.8731 129.364 52.97 126.689 52.4218 124.13L50.4662 124.55ZM50.2218 131.634C49.5665 134.091 48.5435 136.383 47.151 138.513L48.825 139.607C50.3338 137.3 51.4441 134.813 52.1542 132.15L50.2218 131.634ZM47.151 138.513C45.7605 140.639 44.1848 142.287 42.4327 143.482L43.5593 145.134C45.5619 143.769 47.3142 141.918 48.825 139.607L47.151 138.513ZM77.117 163.508L78.1133 163.422L78.0347 162.508H77.117V163.508ZM78.141 175.412L77.2466 175.859L79.1373 175.326L78.141 175.412ZM77.629 174.388L76.7308 173.948L76.5134 174.393L76.7346 174.835L77.629 174.388ZM85.949 164.916L85.4172 164.069L85.4082 164.075L85.949 164.916ZM106.429 162.868L106.806 161.942L106.806 161.942L106.429 162.868ZM112.061 166.964L111.284 167.593L111.3 167.614L111.318 167.633L112.061 166.964ZM115.005 173.364L115.519 174.221L116.103 173.871L115.991 173.2L115.005 173.364ZM114.365 173.748L113.483 173.277L111.784 176.463L114.879 174.605L114.365 173.748ZM122.813 164.788L123.324 165.647L123.33 165.644L122.813 164.788ZM146.621 165.94L145.914 166.647L145.924 166.657L145.934 166.667L146.621 165.94ZM151.357 177.332H152.357V177.323L152.357 177.314L151.357 177.332ZM151.357 216.5V217.5H152.357V216.5H151.357ZM139.453 216.5H138.453V217.5H139.453V216.5ZM139.453 181.556H140.453V181.54L140.453 181.525L139.453 181.556ZM137.405 174.772L136.561 175.309L136.576 175.331L136.591 175.353L137.405 174.772ZM131.005 171.7L131.06 170.702L131.033 170.7H131.005V171.7ZM122.685 174.516L122.081 173.719L122.074 173.724L122.067 173.73L122.685 174.516ZM117.053 181.812L117.958 182.238L117.962 182.228L117.053 181.812ZM114.877 191.284L113.877 191.259L113.877 191.272V191.284H114.877ZM114.877 216.5V217.5H115.877V216.5H114.877ZM102.973 216.5H101.973V217.5H102.973V216.5ZM102.973 181.556H103.973V181.54L103.973 181.525L102.973 181.556ZM100.797 174.772L99.9708 175.335L99.9856 175.357L100.002 175.378L100.797 174.772ZM94.269 171.7L94.3245 170.702L94.2968 170.7H94.269V171.7ZM85.949 174.516L86.5668 175.302L86.5668 175.302L85.949 174.516ZM80.317 181.812L79.4075 181.396L79.4026 181.407L79.3979 181.418L80.317 181.812ZM78.397 216.5V217.5H79.397V216.5H78.397ZM66.493 216.5H65.493V217.5H66.493V216.5ZM66.493 163.508V162.508H65.493V163.508H66.493ZM76.1207 163.594L77.1447 175.498L79.1373 175.326L78.1133 163.422L76.1207 163.594ZM79.0354 174.965L78.5234 173.941L76.7346 174.835L77.2466 175.859L79.0354 174.965ZM78.5272 174.828C80.4137 170.973 83.0669 167.958 86.4898 165.757L85.4082 164.075C81.6631 166.482 78.7697 169.782 76.7308 173.948L78.5272 174.828ZM86.4808 165.763C89.9775 163.567 93.9715 162.46 98.493 162.46V160.46C93.6278 160.46 89.2591 161.657 85.4172 164.069L86.4808 165.763ZM98.493 162.46C101.376 162.46 103.889 162.913 106.052 163.794L106.806 161.942C104.361 160.946 101.584 160.46 98.493 160.46V162.46ZM106.052 163.794C108.212 164.674 109.948 165.943 111.284 167.593L112.838 166.335C111.273 164.401 109.254 162.939 106.806 161.942L106.052 163.794ZM111.318 167.633C112.71 169.18 113.619 171.131 114.019 173.528L115.991 173.2C115.538 170.477 114.484 168.161 112.804 166.295L111.318 167.633ZM114.491 172.507L113.851 172.891L114.879 174.605L115.519 174.221L114.491 172.507ZM115.247 174.219C117.213 170.532 119.904 167.683 123.324 165.647L122.302 163.929C118.554 166.16 115.613 169.284 113.483 173.277L115.247 174.219ZM123.33 165.644C126.855 163.513 130.517 162.46 134.333 162.46V160.46C130.127 160.46 126.11 161.626 122.296 163.932L123.33 165.644ZM134.333 162.46C139.339 162.46 143.156 163.89 145.914 166.647L147.328 165.233C144.112 162.017 139.738 160.46 134.333 160.46V162.46ZM145.934 166.667C148.788 169.362 150.276 172.893 150.357 177.35L152.357 177.314C152.267 172.384 150.598 168.32 147.308 165.213L145.934 166.667ZM150.357 177.332V216.5H152.357V177.332H150.357ZM151.357 215.5H139.453V217.5H151.357V215.5ZM140.453 216.5V181.556H138.453V216.5H140.453ZM140.453 181.525C140.362 178.644 139.639 176.179 138.219 174.191L136.591 175.353C137.731 176.949 138.373 179.006 138.453 181.587L140.453 181.525ZM138.249 174.235C136.82 171.99 134.321 170.883 131.06 170.702L130.95 172.698C133.833 172.859 135.601 173.799 136.561 175.309L138.249 174.235ZM131.005 170.7C127.712 170.7 124.727 171.712 122.081 173.719L123.289 175.313C125.592 173.566 128.154 172.7 131.005 172.7V170.7ZM122.067 173.73C119.543 175.713 117.57 178.277 116.144 181.396L117.962 182.228C119.267 179.374 121.049 177.073 123.303 175.302L122.067 173.73ZM116.148 181.386C114.72 184.421 113.966 187.716 113.877 191.259L115.877 191.309C115.959 188.025 116.655 185.006 117.958 182.238L116.148 181.386ZM113.877 191.284V216.5H115.877V191.284H113.877ZM114.877 215.5H102.973V217.5H114.877V215.5ZM103.973 216.5V181.556H101.973V216.5H103.973ZM103.973 181.525C103.882 178.631 103.109 176.156 101.592 174.166L100.002 175.378C101.216 176.972 101.893 179.02 101.973 181.587L103.973 181.525ZM101.623 174.209C100.111 171.99 97.5889 170.883 94.3245 170.702L94.2135 172.698C97.0931 172.858 98.9234 173.799 99.9708 175.335L101.623 174.209ZM94.269 170.7C90.897 170.7 87.904 171.708 85.3312 173.73L86.5668 175.302C88.7727 173.569 91.3263 172.7 94.269 172.7V170.7ZM85.3312 173.73C82.8065 175.713 80.8337 178.277 79.4075 181.396L81.2265 182.228C82.531 179.374 84.3128 177.073 86.5668 175.302L85.3312 173.73ZM79.3979 181.418C78.0618 184.535 77.397 187.87 77.397 191.412H79.397C79.397 188.127 80.0122 185.062 81.2361 182.206L79.3979 181.418ZM77.397 191.412V216.5H79.397V191.412H77.397ZM78.397 215.5H66.493V217.5H78.397V215.5ZM67.493 216.5V163.508H65.493V216.5H67.493ZM66.493 164.508H77.117V162.508H66.493V164.508ZM255.626 211.636L256.244 212.422L257.044 211.794L256.402 211.005L255.626 211.636ZM221.834 214.324L222.302 213.44L222.302 213.44L221.834 214.324ZM211.594 204.724L210.726 205.22L210.732 205.231L210.738 205.241L211.594 204.724ZM211.85 175.284L211.005 174.749L211.001 174.756L210.997 174.762L211.85 175.284ZM222.09 165.684L222.559 166.567L222.565 166.564L222.09 165.684ZM247.178 164.02L246.84 164.961L246.848 164.964L247.178 164.02ZM255.882 168.884L256.676 169.492L257.252 168.741L256.533 168.125L255.882 168.884ZM249.994 176.564L249.38 177.353L250.175 177.972L250.788 177.172L249.994 176.564ZM244.362 173.364L244.752 172.443L244.752 172.443L244.362 173.364ZM228.234 174.388L228.749 175.246L228.757 175.241L228.234 174.388ZM222.09 180.788L221.218 180.298L221.213 180.308L221.207 180.319L222.09 180.788ZM222.218 199.092L221.34 199.571L221.346 199.582L222.218 199.092ZM228.618 205.62L228.107 206.48L228.118 206.486L228.128 206.492L228.618 205.62ZM244.234 206.9L243.905 205.955L243.892 205.96L244.234 206.9ZM249.482 204.084L250.258 203.453L249.64 202.694L248.868 203.295L249.482 204.084ZM255.008 210.85C252.722 212.646 249.969 214.089 246.734 215.167L247.366 217.065C250.787 215.925 253.751 214.381 256.244 212.422L255.008 210.85ZM246.734 215.167C243.502 216.245 240.281 216.78 237.066 216.78V218.78C240.507 218.78 243.942 218.206 247.366 217.065L246.734 215.167ZM237.066 216.78C231.397 216.78 226.486 215.655 222.302 213.44L221.366 215.208C225.886 217.601 231.129 218.78 237.066 218.78V216.78ZM222.302 213.44C218.105 211.218 214.828 208.143 212.45 204.207L210.738 205.241C213.309 209.497 216.859 212.822 221.366 215.208L222.302 213.44ZM212.462 204.228C210.173 200.221 209.01 195.492 209.01 190.004H207.01C207.01 195.78 208.236 200.864 210.726 205.22L212.462 204.228ZM209.01 190.004C209.01 184.528 210.253 179.808 212.703 175.806L210.997 174.762C208.327 179.123 207.01 184.216 207.01 190.004H209.01ZM212.695 175.819C215.252 171.777 218.538 168.701 222.559 166.567L221.621 164.801C217.279 167.105 213.739 170.428 211.005 174.749L212.695 175.819ZM222.565 166.564C226.685 164.339 231.087 163.228 235.786 163.228V161.228C230.757 161.228 226.028 162.421 221.615 164.804L222.565 166.564ZM235.786 163.228C239.961 163.228 243.64 163.813 246.84 164.961L247.516 163.079C244.06 161.838 240.145 161.228 235.786 161.228V163.228ZM246.848 164.964C250.161 166.124 252.949 167.687 255.231 169.643L256.533 168.125C254.036 165.985 251.022 164.306 247.508 163.076L246.848 164.964ZM255.088 168.276L249.2 175.956L250.788 177.172L256.676 169.492L255.088 168.276ZM250.608 175.775C248.989 174.516 247.032 173.408 244.752 172.443L243.972 174.285C246.129 175.197 247.927 176.223 249.38 177.353L250.608 175.775ZM244.752 172.443C242.391 171.444 239.738 170.956 236.81 170.956V172.956C239.514 172.956 241.896 173.407 243.972 174.285L244.752 172.443ZM236.81 170.956C233.552 170.956 230.512 171.819 227.711 173.535L228.757 175.241C231.246 173.715 233.924 172.956 236.81 172.956V170.956ZM227.72 173.531C225.003 175.16 222.835 177.424 221.218 180.298L222.962 181.278C224.417 178.691 226.345 176.688 228.748 175.245L227.72 173.531ZM221.207 180.319C219.672 183.209 218.914 186.444 218.914 190.004H220.914C220.914 186.737 221.607 183.829 222.973 181.257L221.207 180.319ZM218.914 190.004C218.914 193.412 219.723 196.606 221.34 199.571L223.096 198.613C221.641 195.946 220.914 193.081 220.914 190.004H218.914ZM221.346 199.582C222.97 202.468 225.228 204.77 228.107 206.48L229.129 204.76C226.546 203.227 224.538 201.178 223.09 198.602L221.346 199.582ZM228.128 206.492C231.025 208.121 234.312 208.924 237.962 208.924V206.924C234.615 206.924 231.672 206.191 229.108 204.748L228.128 206.492ZM237.962 208.924C240.365 208.924 242.573 208.568 244.576 207.84L243.892 205.96C242.14 206.597 240.167 206.924 237.962 206.924V208.924ZM244.563 207.844C246.621 207.128 248.468 206.139 250.096 204.873L248.868 203.295C247.424 204.418 245.772 205.306 243.905 205.956L244.563 207.844ZM248.706 204.715L254.85 212.267L256.402 211.005L250.258 203.453L248.706 204.715ZM279.441 214.58L278.971 215.463L278.979 215.467L279.441 214.58ZM269.841 205.236L268.965 205.719L268.971 205.729L268.977 205.74L269.841 205.236ZM270.097 174.772L270.962 175.274L270.966 175.266L270.097 174.772ZM279.953 164.788L279.47 163.912L279.463 163.916L279.953 164.788ZM306.193 164.788L305.634 165.617L305.641 165.622L305.648 165.626L306.193 164.788ZM314.001 172.724L314.937 173.075L315.104 172.63L314.865 172.22L314.001 172.724ZM313.233 174.772L312.238 174.67L314.169 175.123L313.233 174.772ZM314.385 163.508V162.508H313.482L313.39 163.406L314.385 163.508ZM325.393 163.508H326.393V162.508H325.393V163.508ZM325.393 216.5V217.5H326.393V216.5H325.393ZM313.489 216.5H312.489V217.5H313.489V216.5ZM313.489 202.676L314.412 202.291L312.489 202.676H313.489ZM314.769 205.748L315.697 206.119L315.849 205.74L315.692 205.363L314.769 205.748ZM312.465 209.076L311.712 208.417L311.709 208.421L312.465 209.076ZM307.857 213.044L307.286 212.223L307.277 212.229L307.269 212.235L307.857 213.044ZM301.329 216.5L301.655 217.445L301.669 217.44L301.684 217.435L301.329 216.5ZM304.273 206.26L303.852 205.353L303.852 205.353L304.273 206.26ZM310.161 201.652L309.377 201.031L309.373 201.036L310.161 201.652ZM313.489 194.356L314.467 194.564L314.489 194.461V194.356H313.489ZM313.489 183.988H314.489V183.857L314.455 183.73L313.489 183.988ZM309.905 177.332L309.15 177.988L309.158 177.997L309.165 178.005L309.905 177.332ZM303.761 172.852L303.34 173.759L303.353 173.765L303.367 173.771L303.761 172.852ZM287.121 173.492L286.619 172.627L286.619 172.627L287.121 173.492ZM280.721 179.892L279.861 179.381L279.855 179.392L279.849 179.402L280.721 179.892ZM280.849 198.836L281.716 198.337L281.716 198.337L280.849 198.836ZM293.009 216.78C288.209 216.78 283.846 215.747 279.903 213.693L278.979 215.467C283.228 217.68 287.911 218.78 293.009 218.78V216.78ZM279.911 213.697C276.071 211.655 273.005 208.675 270.705 204.732L268.977 205.74C271.456 209.989 274.789 213.238 278.971 215.463L279.911 213.697ZM270.717 204.753C268.512 200.753 267.385 195.85 267.385 190.004H265.385C265.385 196.104 266.562 201.357 268.965 205.719L270.717 204.753ZM267.385 190.004C267.385 184.258 268.591 179.361 270.962 175.274L269.232 174.27C266.653 178.716 265.385 183.974 265.385 190.004H267.385ZM270.966 175.266C273.357 171.061 276.516 167.869 280.443 165.66L279.463 163.916C275.198 166.315 271.786 169.779 269.228 174.278L270.966 175.266ZM280.436 165.664C284.464 163.444 288.862 162.332 293.649 162.332V160.332C288.537 160.332 283.805 161.524 279.47 163.912L280.436 165.664ZM293.649 162.332C298.44 162.332 302.416 163.445 305.634 165.617L306.752 163.959C303.143 161.523 298.757 160.332 293.649 160.332V162.332ZM305.648 165.626C308.949 167.772 311.435 170.309 313.137 173.228L314.865 172.22C312.983 168.995 310.263 166.241 306.738 163.95L305.648 165.626ZM313.065 172.373L312.297 174.421L314.169 175.123L314.937 173.075L313.065 172.373ZM314.228 174.874L315.38 163.61L313.39 163.406L312.238 174.67L314.228 174.874ZM314.385 164.508H325.393V162.508H314.385V164.508ZM324.393 163.508V216.5H326.393V163.508H324.393ZM325.393 215.5H313.489V217.5H325.393V215.5ZM314.489 216.5V202.676H312.489V216.5H314.489ZM312.566 203.061L313.846 206.133L315.692 205.363L314.412 202.291L312.566 203.061ZM313.841 205.377C313.565 206.066 312.891 207.071 311.712 208.417L313.218 209.735C314.429 208.35 315.291 207.136 315.697 206.119L313.841 205.377ZM311.709 208.421C310.672 209.618 309.206 210.887 307.286 212.223L308.428 213.865C310.433 212.47 312.04 211.094 313.221 209.731L311.709 208.421ZM307.269 212.235C305.473 213.542 303.377 214.654 300.974 215.565L301.684 217.435C304.23 216.469 306.487 215.277 308.445 213.853L307.269 212.235ZM301.003 215.555C298.65 216.366 295.989 216.78 293.009 216.78V218.78C296.173 218.78 299.059 218.341 301.655 217.445L301.003 215.555ZM296.209 208.924C299.322 208.924 302.156 208.345 304.694 207.167L303.852 205.353C301.611 206.393 299.07 206.924 296.209 206.924V208.924ZM304.694 207.167C307.218 205.995 309.31 204.363 310.949 202.268L309.373 201.036C307.94 202.867 306.106 204.306 303.852 205.353L304.694 207.167ZM310.945 202.273C312.672 200.092 313.841 197.515 314.467 194.564L312.511 194.148C311.942 196.829 310.893 199.116 309.377 201.031L310.945 202.273ZM314.489 194.356V183.988H312.489V194.356H314.489ZM314.455 183.73C313.733 181.023 312.464 178.66 310.645 176.659L309.165 178.005C310.759 179.758 311.879 181.833 312.523 184.246L314.455 183.73ZM310.66 176.676C308.854 174.6 306.683 173.016 304.155 171.933L303.367 173.771C305.618 174.736 307.543 176.139 309.15 177.988L310.66 176.676ZM304.182 171.945C301.648 170.768 298.857 170.188 295.825 170.188V172.188C298.596 172.188 301.095 172.717 303.34 173.759L304.182 171.945ZM295.825 170.188C292.497 170.188 289.422 171 286.619 172.627L287.623 174.357C290.111 172.912 292.838 172.188 295.825 172.188V170.188ZM286.619 172.627C283.82 174.252 281.566 176.51 279.861 179.381L281.581 180.403C283.119 177.813 285.131 175.804 287.623 174.357L286.619 172.627ZM279.849 179.402C278.216 182.306 277.417 185.681 277.417 189.492H279.417C279.417 185.965 280.154 182.939 281.593 180.382L279.849 179.402ZM277.417 189.492C277.417 193.071 278.269 196.359 279.982 199.335L281.716 198.337C280.186 195.681 279.417 192.739 279.417 189.492H277.417ZM279.982 199.335C281.687 202.296 283.985 204.641 286.866 206.352L287.888 204.632C285.308 203.101 283.253 201.008 281.716 198.337L279.982 199.335ZM286.866 206.352C289.751 208.064 292.871 208.924 296.209 208.924V206.924C293.232 206.924 290.465 206.162 287.888 204.632L286.866 206.352ZM356.617 163.508L357.613 163.422L357.535 162.508H356.617V163.508ZM357.641 175.412L356.747 175.859L358.637 175.326L357.641 175.412ZM357.129 174.388L356.231 173.948L356.013 174.393L356.235 174.835L357.129 174.388ZM365.449 164.916L364.917 164.069L364.908 164.075L365.449 164.916ZM385.929 162.868L386.306 161.942L386.306 161.942L385.929 162.868ZM391.561 166.964L390.784 167.593L390.8 167.614L390.818 167.633L391.561 166.964ZM394.505 173.364L395.019 174.221L395.603 173.871L395.491 173.2L394.505 173.364ZM393.865 173.748L392.983 173.277L391.284 176.463L394.379 174.605L393.865 173.748ZM402.313 164.788L402.824 165.647L402.83 165.644L402.313 164.788ZM426.121 165.94L425.414 166.647L425.424 166.657L425.434 166.667L426.121 165.94ZM430.857 177.332H431.857V177.323L431.857 177.314L430.857 177.332ZM430.857 216.5V217.5H431.857V216.5H430.857ZM418.953 216.5H417.953V217.5H418.953V216.5ZM418.953 181.556H419.953V181.54L419.953 181.525L418.953 181.556ZM416.905 174.772L416.061 175.309L416.076 175.331L416.091 175.353L416.905 174.772ZM410.505 171.7L410.56 170.702L410.533 170.7H410.505V171.7ZM402.185 174.516L401.581 173.719L401.574 173.724L401.567 173.73L402.185 174.516ZM396.553 181.812L397.458 182.238L397.462 182.228L396.553 181.812ZM394.377 191.284L393.377 191.259L393.377 191.272V191.284H394.377ZM394.377 216.5V217.5H395.377V216.5H394.377ZM382.473 216.5H381.473V217.5H382.473V216.5ZM382.473 181.556H383.473V181.54L383.473 181.525L382.473 181.556ZM380.297 174.772L379.471 175.335L379.486 175.357L379.502 175.378L380.297 174.772ZM373.769 171.7L373.824 170.702L373.797 170.7H373.769V171.7ZM365.449 174.516L366.067 175.302L366.067 175.302L365.449 174.516ZM359.817 181.812L358.908 181.396L358.903 181.407L358.898 181.418L359.817 181.812ZM357.897 216.5V217.5H358.897V216.5H357.897ZM345.993 216.5H344.993V217.5H345.993V216.5ZM345.993 163.508V162.508H344.993V163.508H345.993ZM355.621 163.594L356.645 175.498L358.637 175.326L357.613 163.422L355.621 163.594ZM358.535 174.965L358.023 173.941L356.235 174.835L356.747 175.859L358.535 174.965ZM358.027 174.828C359.914 170.973 362.567 167.958 365.99 165.757L364.908 164.075C361.163 166.482 358.27 169.782 356.231 173.948L358.027 174.828ZM365.981 165.763C369.478 163.567 373.472 162.46 377.993 162.46V160.46C373.128 160.46 368.759 161.657 364.917 164.069L365.981 165.763ZM377.993 162.46C380.876 162.46 383.389 162.913 385.552 163.794L386.306 161.942C383.861 160.946 381.084 160.46 377.993 160.46V162.46ZM385.552 163.794C387.712 164.674 389.448 165.943 390.784 167.593L392.338 166.335C390.773 164.401 388.754 162.939 386.306 161.942L385.552 163.794ZM390.818 167.633C392.21 169.18 393.119 171.131 393.519 173.528L395.491 173.2C395.038 170.477 393.984 168.161 392.304 166.295L390.818 167.633ZM393.991 172.507L393.351 172.891L394.379 174.605L395.019 174.221L393.991 172.507ZM394.747 174.219C396.713 170.532 399.404 167.683 402.824 165.647L401.802 163.929C398.054 166.16 395.113 169.284 392.983 173.277L394.747 174.219ZM402.83 165.644C406.355 163.513 410.017 162.46 413.833 162.46V160.46C409.627 160.46 405.61 161.626 401.796 163.932L402.83 165.644ZM413.833 162.46C418.839 162.46 422.656 163.89 425.414 166.647L426.828 165.233C423.612 162.017 419.238 160.46 413.833 160.46V162.46ZM425.434 166.667C428.288 169.362 429.776 172.893 429.857 177.35L431.857 177.314C431.767 172.384 430.098 168.32 426.808 165.213L425.434 166.667ZM429.857 177.332V216.5H431.857V177.332H429.857ZM430.857 215.5H418.953V217.5H430.857V215.5ZM419.953 216.5V181.556H417.953V216.5H419.953ZM419.953 181.525C419.862 178.644 419.139 176.179 417.719 174.191L416.091 175.353C417.231 176.949 417.873 179.006 417.953 181.587L419.953 181.525ZM417.749 174.235C416.32 171.99 413.821 170.883 410.56 170.702L410.45 172.698C413.333 172.859 415.101 173.799 416.061 175.309L417.749 174.235ZM410.505 170.7C407.212 170.7 404.227 171.712 401.581 173.719L402.789 175.313C405.092 173.566 407.654 172.7 410.505 172.7V170.7ZM401.567 173.73C399.043 175.713 397.07 178.277 395.644 181.396L397.462 182.228C398.767 179.374 400.549 177.073 402.803 175.302L401.567 173.73ZM395.648 181.386C394.22 184.421 393.466 187.716 393.377 191.259L395.377 191.309C395.459 188.025 396.155 185.006 397.458 182.238L395.648 181.386ZM393.377 191.284V216.5H395.377V191.284H393.377ZM394.377 215.5H382.473V217.5H394.377V215.5ZM383.473 216.5V181.556H381.473V216.5H383.473ZM383.473 181.525C383.382 178.631 382.609 176.156 381.092 174.166L379.502 175.378C380.716 176.972 381.393 179.02 381.473 181.587L383.473 181.525ZM381.123 174.209C379.611 171.99 377.089 170.883 373.824 170.702L373.714 172.698C376.593 172.858 378.423 173.799 379.471 175.335L381.123 174.209ZM373.769 170.7C370.397 170.7 367.404 171.708 364.831 173.73L366.067 175.302C368.273 173.569 370.826 172.7 373.769 172.7V170.7ZM364.831 173.73C362.307 175.713 360.334 178.277 358.908 181.396L360.726 182.228C362.031 179.374 363.813 177.073 366.067 175.302L364.831 173.73ZM358.898 181.418C357.562 184.535 356.897 187.87 356.897 191.412H358.897C358.897 188.127 359.512 185.062 360.736 182.206L358.898 181.418ZM356.897 191.412V216.5H358.897V191.412H356.897ZM357.897 215.5H345.993V217.5H357.897V215.5ZM346.993 216.5V163.508H344.993V216.5H346.993ZM345.993 164.508H356.617V162.508H345.993V164.508ZM451.618 163.508V162.508H450.618V163.508H451.618ZM463.522 163.508H464.522V162.508H463.522V163.508ZM463.522 216.5V217.5H464.522V216.5H463.522ZM451.618 216.5H450.618V217.5H451.618V216.5ZM452.898 139.572L452.258 138.804L452.247 138.813L452.236 138.822L452.898 139.572ZM462.626 139.572L461.942 140.302L461.953 140.312L461.964 140.322L462.626 139.572ZM462.626 149.172L463.285 149.925L463.288 149.922L462.626 149.172ZM452.898 149.044L452.236 149.794L452.247 149.803L452.258 149.812L452.898 149.044ZM451.618 164.508H463.522V162.508H451.618V164.508ZM462.522 163.508V216.5H464.522V163.508H462.522ZM463.522 215.5H451.618V217.5H463.522V215.5ZM452.618 216.5V163.508H450.618V216.5H452.618ZM451.722 144.308C451.722 142.727 452.317 141.419 453.56 140.322L452.236 138.822C450.578 140.285 449.722 142.134 449.722 144.308H451.722ZM453.538 140.34C454.917 139.192 456.359 138.652 457.89 138.652V136.652C455.837 136.652 453.951 137.392 452.258 138.804L453.538 140.34ZM457.89 138.652C459.416 138.652 460.753 139.187 461.942 140.302L463.31 138.842C461.768 137.397 459.948 136.652 457.89 136.652V138.652ZM461.964 140.322C463.207 141.419 463.802 142.727 463.802 144.308H465.802C465.802 142.134 464.946 140.285 463.288 138.822L461.964 140.322ZM463.802 144.308C463.802 145.989 463.196 147.335 461.964 148.422L463.288 149.922C464.957 148.449 465.802 146.553 465.802 144.308H463.802ZM461.967 148.419C460.782 149.457 459.436 149.964 457.89 149.964V151.964C459.928 151.964 461.739 151.277 463.285 149.925L461.967 148.419ZM457.89 149.964C456.359 149.964 454.917 149.424 453.538 148.276L452.258 149.812C453.951 151.224 455.837 151.964 457.89 151.964V149.964ZM453.56 148.294C452.317 147.197 451.722 145.889 451.722 144.308H449.722C449.722 146.482 450.578 148.331 452.236 149.794L453.56 148.294ZM484.118 117.428V116.428H483.118V117.428H484.118ZM496.022 117.428H497.022V116.428H496.022V117.428ZM496.022 216.5V217.5H497.022V216.5H496.022ZM484.118 216.5H483.118V217.5H484.118V216.5ZM484.118 118.428H496.022V116.428H484.118V118.428ZM495.022 117.428V216.5H497.022V117.428H495.022ZM496.022 215.5H484.118V217.5H496.022V215.5ZM485.118 216.5V117.428H483.118V216.5H485.118ZM516.618 117.428V116.428H515.618V117.428H516.618ZM528.522 117.428H529.522V116.428H528.522V117.428ZM528.522 216.5V217.5H529.522V216.5H528.522ZM516.618 216.5H515.618V217.5H516.618V216.5ZM516.618 118.428H528.522V116.428H516.618V118.428ZM527.522 117.428V216.5H529.522V117.428H527.522ZM528.522 215.5H516.618V217.5H528.522V215.5ZM517.618 216.5V117.428H515.618V216.5H517.618ZM558.078 214.196L557.584 215.065L557.59 215.069L557.597 215.073L558.078 214.196ZM547.966 204.212L547.086 204.687L547.092 204.698L547.098 204.708L547.966 204.212ZM548.478 175.412L549.328 175.939L549.328 175.939L548.478 175.412ZM591.358 167.476L590.694 168.223L590.694 168.223L591.358 167.476ZM600.702 184.372L601.034 185.315L601.874 185.02L601.677 184.151L600.702 184.372ZM557.054 199.732L556.126 200.103L556.482 200.994L557.386 200.675L557.054 199.732ZM554.238 192.692L553.896 191.752L552.926 192.106L553.31 193.063L554.238 192.692ZM590.078 179.636L590.623 180.474L589.736 178.696L590.078 179.636ZM587.518 181.3L586.578 181.642L587.008 182.824L588.063 182.138L587.518 181.3ZM582.398 174.004L581.732 174.75L581.74 174.757L581.747 174.763L582.398 174.004ZM564.35 173.236L564.864 174.093L564.875 174.087L564.885 174.081L564.35 173.236ZM558.334 179.636L559.217 180.105L559.217 180.105L558.334 179.636ZM558.462 198.708L557.584 199.187L557.59 199.198L558.462 198.708ZM564.734 205.236L564.211 206.089L564.227 206.098L564.244 206.108L564.734 205.236ZM580.606 206.26L580.247 205.327L580.235 205.332L580.606 206.26ZM586.75 202.932L587.599 202.403L587.031 201.491L586.162 202.123L586.75 202.932ZM592.254 211.764L592.815 212.592L593.612 212.052L593.103 211.235L592.254 211.764ZM583.294 216.116L582.978 215.167L582.97 215.17L583.294 216.116ZM573.694 216.78C567.767 216.78 562.735 215.612 558.559 213.319L557.597 215.073C562.125 217.559 567.504 218.78 573.694 218.78V216.78ZM558.572 213.327C554.37 210.937 551.131 207.735 548.834 203.716L547.098 204.708C549.58 209.051 553.082 212.506 557.584 215.065L558.572 213.327ZM548.846 203.737C546.63 199.634 545.51 194.937 545.51 189.62H543.51C543.51 195.226 544.694 200.257 547.086 204.687L548.846 203.737ZM545.51 189.62C545.51 184.594 546.784 180.041 549.328 175.939L547.628 174.885C544.881 179.316 543.51 184.236 543.51 189.62H545.51ZM549.328 175.939C551.884 171.815 555.304 168.517 559.602 166.038L558.602 164.306C554.025 166.947 550.362 170.475 547.628 174.885L549.328 175.939ZM559.602 166.038C563.877 163.572 568.652 162.332 573.95 162.332V160.332C568.325 160.332 563.202 161.652 558.602 164.306L559.602 166.038ZM573.95 162.332C580.738 162.332 586.293 164.312 590.694 168.223L592.022 166.729C587.207 162.448 581.157 160.332 573.95 160.332V162.332ZM590.694 168.223C595.117 172.156 598.142 177.588 599.727 184.593L601.677 184.151C600.019 176.82 596.815 170.988 592.022 166.729L590.694 168.223ZM600.37 183.429L556.722 198.789L557.386 200.675L601.034 185.315L600.37 183.429ZM557.982 199.361L555.166 192.321L553.31 193.063L556.126 200.103L557.982 199.361ZM554.58 193.632L590.42 180.576L589.736 178.696L553.896 191.752L554.58 193.632ZM589.533 178.798L586.973 180.462L588.063 182.138L590.623 180.474L589.533 178.798ZM588.458 180.958C587.372 177.972 585.562 175.399 583.049 173.245L581.747 174.763C584.013 176.705 585.616 178.996 586.578 181.642L588.458 180.958ZM583.064 173.258C580.456 170.93 577.088 169.804 573.054 169.804V171.804C576.7 171.804 579.561 172.812 581.732 174.75L583.064 173.258ZM573.054 169.804C569.636 169.804 566.546 170.661 563.815 172.391L564.885 174.081C567.274 172.568 569.987 171.804 573.054 171.804V169.804ZM563.836 172.379C561.114 174.011 558.984 176.282 557.451 179.167L559.217 180.105C560.586 177.529 562.466 175.533 564.864 174.093L563.836 172.379ZM557.451 179.167C555.914 182.06 555.158 185.34 555.158 188.98H557.158C557.158 185.623 557.853 182.673 559.217 180.105L557.451 179.167ZM555.158 188.98C555.158 192.792 555.957 196.204 557.584 199.187L559.34 198.229C557.895 195.58 557.158 192.506 557.158 188.98H555.158ZM557.59 199.198C559.209 202.076 561.419 204.377 564.211 206.089L565.257 204.383C562.758 202.852 560.787 200.801 559.334 198.218L557.59 199.198ZM564.244 206.108C567.137 207.735 570.381 208.54 573.95 208.54V206.54C570.693 206.54 567.792 205.809 565.224 204.364L564.244 206.108ZM573.95 208.54C576.381 208.54 578.726 208.089 580.977 207.188L580.235 205.332C578.22 206.137 576.127 206.54 573.95 206.54V208.54ZM580.965 207.193C583.263 206.309 585.389 205.159 587.338 203.741L586.162 202.123C584.357 203.436 582.386 204.504 580.247 205.327L580.965 207.193ZM585.901 203.461L591.405 212.293L593.103 211.235L587.599 202.403L585.901 203.461ZM591.693 210.936C589.13 212.672 586.227 214.084 582.978 215.167L583.61 217.065C587.017 215.929 590.087 214.44 592.815 212.592L591.693 210.936ZM582.97 215.17C579.823 216.247 576.732 216.78 573.694 216.78V218.78C576.97 218.78 580.28 218.204 583.618 217.062L582.97 215.17ZM626.37 205.364L627.291 205.754L627.879 204.364H626.37V205.364ZM620.738 218.548L619.82 218.152L619.815 218.163L619.811 218.174L620.738 218.548ZM615.234 231.988V232.988H615.902L616.158 232.371L615.234 231.988ZM605.634 231.988L604.698 231.635L604.188 232.988H605.634V231.988ZM610.626 218.548L609.689 218.199L609.687 218.205L610.626 218.548ZM615.618 205.364V204.364H614.931L614.685 205.005L615.618 205.364ZM625.449 204.974C623.573 209.41 621.696 213.802 619.82 218.152L621.656 218.944C623.534 214.59 625.413 210.193 627.291 205.754L625.449 204.974ZM619.811 218.174C618.02 222.608 616.187 227.085 614.31 231.605L616.158 232.371C618.036 227.846 619.872 223.363 621.665 218.922L619.811 218.174ZM615.234 230.988H605.634V232.988H615.234V230.988ZM606.57 232.341C608.277 227.815 609.943 223.332 611.565 218.891L609.687 218.205C608.067 222.639 606.404 227.115 604.698 231.635L606.57 232.341ZM611.563 218.897C613.183 214.548 614.846 210.157 616.551 205.723L614.685 205.005C612.977 209.446 611.312 213.844 609.689 218.199L611.563 218.897ZM615.618 206.364H626.37V204.364H615.618V206.364Z" fill="black" mask="url(#path-2-outside-1_441_117)"/>
<path d="M32.509 355.78C27.5597 355.78 23.037 354.713 18.941 352.58C14.9303 350.447 11.7303 347.332 9.341 343.236C7.037 339.055 5.885 333.977 5.885 328.004C5.885 322.116 7.12233 317.039 9.597 312.772C12.0717 308.42 15.357 305.092 19.453 302.788C23.6343 300.484 28.1997 299.332 33.149 299.332C38.0983 299.332 42.2797 300.484 45.693 302.788C49.1063 305.007 51.709 307.652 53.501 310.724L52.733 312.772L53.885 301.508H64.893V354.5H52.989V340.676L54.269 343.748C53.9277 344.601 53.1597 345.711 51.965 347.076C50.8557 348.356 49.3197 349.679 47.357 351.044C45.4797 352.409 43.3037 353.561 40.829 354.5C38.3543 355.353 35.581 355.78 32.509 355.78ZM35.709 345.924C38.6957 345.924 41.3837 345.369 43.773 344.26C46.1623 343.151 48.125 341.615 49.661 339.652C51.2823 337.604 52.3917 335.172 52.989 332.356V321.988C52.3063 319.428 51.1117 317.209 49.405 315.332C47.6983 313.369 45.6503 311.876 43.261 310.852C40.8717 309.743 38.2263 309.188 35.325 309.188C32.1677 309.188 29.2663 309.956 26.621 311.492C23.9757 313.028 21.8423 315.161 20.221 317.892C18.685 320.623 17.917 323.823 17.917 327.492C17.917 330.905 18.7277 334.02 20.349 336.836C21.9703 339.652 24.1463 341.871 26.877 343.492C29.6077 345.113 32.5517 345.924 35.709 345.924Z" fill="url(#paint0_linear_441_117)"/>
<path d="M142.761 356.548C137.982 356.548 134.014 355.097 130.857 352.196C127.785 349.209 126.164 345.369 125.993 340.676V301.508H137.897V336.452C138.068 339.353 138.878 341.7 140.329 343.492C141.865 345.284 144.254 346.223 147.497 346.308C150.484 346.308 153.129 345.455 155.433 343.748C157.822 341.956 159.742 339.567 161.193 336.58C162.644 333.508 163.369 330.052 163.369 326.212V301.508H175.273V354.5H164.393L163.369 341.444L164.009 343.748C162.985 346.223 161.406 348.441 159.273 350.404C157.225 352.281 154.793 353.775 151.977 354.884C149.161 355.993 146.089 356.548 142.761 356.548ZM195.868 301.508H207.772V354.5H195.868V301.508ZM194.972 282.308C194.972 280.431 195.697 278.852 197.148 277.572C198.684 276.292 200.348 275.652 202.14 275.652C203.932 275.652 205.511 276.292 206.876 277.572C208.327 278.852 209.052 280.431 209.052 282.308C209.052 284.271 208.327 285.892 206.876 287.172C205.511 288.367 203.932 288.964 202.14 288.964C200.348 288.964 198.684 288.324 197.148 287.044C195.697 285.764 194.972 284.185 194.972 282.308ZM267.024 259.14C261.051 275.439 255.077 291.737 249.104 308.036C243.131 324.335 237.115 340.633 231.056 356.932H220.176C226.235 340.633 232.251 324.335 238.224 308.036C244.197 291.737 250.213 275.439 256.272 259.14H267.024ZM294.261 356.548C289.482 356.548 285.514 355.097 282.357 352.196C279.285 349.209 277.664 345.369 277.493 340.676V301.508H289.397V336.452C289.568 339.353 290.378 341.7 291.829 343.492C293.365 345.284 295.754 346.223 298.997 346.308C301.984 346.308 304.629 345.455 306.933 343.748C309.322 341.956 311.242 339.567 312.693 336.58C314.144 333.508 314.869 330.052 314.869 326.212V301.508H326.773V354.5H315.893L314.869 341.444L315.509 343.748C314.485 346.223 312.906 348.441 310.773 350.404C308.725 352.281 306.293 353.775 303.477 354.884C300.661 355.993 297.589 356.548 294.261 356.548ZM367.336 321.22L380.008 301.508H392.04L371.688 329.924L367.336 321.22ZM394.088 354.5H379.752L339.432 301.508H354.152L394.088 354.5ZM366.056 334.788L352.104 354.5H340.072L360.296 326.852L366.056 334.788ZM468.872 355.78C464.008 355.78 459.571 354.628 455.56 352.324C451.635 349.935 448.52 346.607 446.216 342.34C443.912 337.988 442.76 332.996 442.76 327.364C442.76 321.476 443.955 316.441 446.344 312.26C448.819 308.079 452.147 304.879 456.328 302.66C460.509 300.441 465.203 299.332 470.408 299.332C474.589 299.332 478.557 300.228 482.312 302.02C486.152 303.812 489.139 306.287 491.272 309.444L490.76 313.668V255.428H502.536V354.5H490.632V341.316L491.912 344.644C489.437 347.887 486.237 350.575 482.312 352.708C478.387 354.756 473.907 355.78 468.872 355.78ZM472.584 345.668C475.741 345.668 478.557 345.113 481.032 344.004C483.507 342.809 485.555 341.188 487.176 339.14C488.797 337.092 489.949 334.66 490.632 331.844V321.86C489.949 319.3 488.712 317.081 486.92 315.204C485.213 313.241 483.123 311.705 480.648 310.596C478.259 309.401 475.571 308.804 472.584 308.804C469.341 308.804 466.355 309.615 463.624 311.236C460.979 312.772 458.845 314.905 457.224 317.636C455.603 320.367 454.792 323.524 454.792 327.108C454.792 330.607 455.603 333.764 457.224 336.58C458.845 339.311 461.021 341.529 463.752 343.236C466.483 344.857 469.427 345.668 472.584 345.668ZM547.819 355.78C541.76 355.78 536.555 354.585 532.203 352.196C527.851 349.721 524.48 346.393 522.091 342.212C519.787 337.945 518.635 333.081 518.635 327.62C518.635 322.415 519.958 317.679 522.603 313.412C525.248 309.145 528.79 305.732 533.227 303.172C537.664 300.612 542.614 299.332 548.075 299.332C555.072 299.332 560.875 301.38 565.483 305.476C570.091 309.572 573.206 315.204 574.827 322.372L531.179 337.732L528.363 330.692L564.203 317.636L561.643 319.3C560.619 316.484 558.912 314.052 556.523 312.004C554.134 309.871 551.019 308.804 547.179 308.804C543.936 308.804 541.035 309.615 538.475 311.236C535.915 312.772 533.91 314.905 532.459 317.636C531.008 320.367 530.283 323.481 530.283 326.98C530.283 330.649 531.051 333.892 532.587 336.708C534.123 339.439 536.214 341.615 538.859 343.236C541.59 344.772 544.662 345.54 548.075 345.54C550.379 345.54 552.598 345.113 554.731 344.26C556.95 343.407 558.998 342.297 560.875 340.932L566.379 349.764C563.734 351.556 560.747 353.007 557.419 354.116C554.176 355.225 550.976 355.78 547.819 355.78ZM604.591 355.524C600.836 355.524 597.167 354.884 593.583 353.604C590.084 352.239 587.183 350.233 584.879 347.588L589.871 340.676C592.09 342.809 594.351 344.431 596.655 345.54C599.044 346.564 601.391 347.076 603.695 347.076C605.402 347.076 606.98 346.863 608.431 346.436C609.882 346.009 611.034 345.327 611.887 344.388C612.826 343.364 613.295 341.999 613.295 340.292C613.295 338.415 612.655 336.921 611.375 335.812C610.18 334.703 608.602 333.807 606.639 333.124C604.762 332.441 602.756 331.801 600.623 331.204C596.271 329.753 592.943 327.748 590.639 325.188C588.335 322.628 587.183 319.513 587.183 315.844C587.183 313.028 587.866 310.425 589.231 308.036C590.682 305.561 592.772 303.556 595.503 302.02C598.319 300.484 601.775 299.716 605.871 299.716C609.54 299.716 612.826 300.185 615.727 301.124C618.628 301.977 621.359 303.428 623.919 305.476L619.183 312.9C617.647 311.279 615.812 310.084 613.679 309.316C611.546 308.548 609.626 308.121 607.919 308.036C606.468 307.951 605.06 308.164 603.695 308.676C602.415 309.188 601.348 309.913 600.495 310.852C599.642 311.791 599.215 312.9 599.215 314.18C599.215 315.972 599.812 317.423 601.007 318.532C602.202 319.641 603.738 320.537 605.615 321.22C607.578 321.817 609.498 322.457 611.375 323.14C614.02 323.908 616.367 324.932 618.415 326.212C620.463 327.492 622.084 329.071 623.279 330.948C624.559 332.825 625.199 335.172 625.199 337.988C625.199 341.145 624.431 344.089 622.895 346.82C621.444 349.465 619.183 351.599 616.111 353.22C613.124 354.756 609.284 355.524 604.591 355.524ZM641.868 301.508H653.772V354.5H641.868V301.508ZM640.972 282.308C640.972 280.431 641.697 278.852 643.148 277.572C644.684 276.292 646.348 275.652 648.14 275.652C649.932 275.652 651.511 276.292 652.876 277.572C654.327 278.852 655.052 280.431 655.052 282.308C655.052 284.271 654.327 285.892 652.876 287.172C651.511 288.367 649.932 288.964 648.14 288.964C646.348 288.964 644.684 288.324 643.148 287.044C641.697 285.764 640.972 284.185 640.972 282.308ZM699.84 380.74C695.915 380.74 692.459 380.271 689.472 379.332C686.485 378.479 683.755 377.241 681.28 375.62C678.891 373.999 676.587 372.164 674.368 370.116L681.28 362.052C684.096 364.697 686.955 366.745 689.856 368.196C692.757 369.647 696 370.372 699.584 370.372C703.595 370.372 706.965 369.689 709.696 368.324C712.512 367.044 714.645 365.209 716.096 362.82C717.547 360.516 718.272 357.828 718.272 354.756L718.4 340.42L719.424 342.724C717.888 346.393 715.115 349.508 711.104 352.068C707.093 354.543 702.229 355.78 696.512 355.78C691.648 355.78 687.168 354.543 683.072 352.068C679.061 349.593 675.819 346.265 673.344 342.084C670.955 337.817 669.76 333.039 669.76 327.748C669.76 322.201 671.04 317.337 673.6 313.156C676.16 308.889 679.531 305.519 683.712 303.044C687.893 300.569 692.459 299.332 697.408 299.332C702.101 299.332 706.368 300.313 710.208 302.276C714.133 304.153 716.992 306.585 718.784 309.572L718.144 311.748L719.424 301.508H730.304V354.884C730.304 359.663 729.067 364.015 726.592 367.94C724.117 371.865 720.619 374.98 716.096 377.284C711.573 379.588 706.155 380.74 699.84 380.74ZM681.664 327.492C681.664 330.905 682.475 334.02 684.096 336.836C685.717 339.652 687.893 341.871 690.624 343.492C693.44 345.113 696.555 345.924 699.968 345.924C703.125 345.924 705.941 345.369 708.416 344.26C710.976 343.065 713.109 341.487 714.816 339.524C716.523 337.476 717.717 335.129 718.4 332.484V321.988C717.632 319.428 716.352 317.209 714.56 315.332C712.768 313.369 710.635 311.876 708.16 310.852C705.685 309.743 702.955 309.188 699.968 309.188C696.555 309.188 693.44 309.956 690.624 311.492C687.893 313.028 685.717 315.204 684.096 318.02C682.475 320.751 681.664 323.908 681.664 327.492ZM761.492 301.508L762.516 314.436L762.004 312.388C763.711 308.463 766.484 305.348 770.324 303.044C774.164 300.655 778.601 299.46 783.636 299.46C788.671 299.46 792.767 300.953 795.924 303.94C799.167 306.841 800.831 310.639 800.916 315.332V354.5H788.884V319.556C788.799 316.655 787.945 314.308 786.324 312.516C784.788 310.639 782.356 309.7 779.028 309.7C775.956 309.7 773.183 310.553 770.708 312.26C768.233 313.967 766.271 316.313 764.82 319.3C763.455 322.287 762.772 325.743 762.772 329.668V354.5H750.868V301.508H761.492ZM846.194 355.78C840.135 355.78 834.93 354.585 830.578 352.196C826.226 349.721 822.855 346.393 820.466 342.212C818.162 337.945 817.01 333.081 817.01 327.62C817.01 322.415 818.333 317.679 820.978 313.412C823.623 309.145 827.165 305.732 831.602 303.172C836.039 300.612 840.989 299.332 846.45 299.332C853.447 299.332 859.25 301.38 863.858 305.476C868.466 309.572 871.581 315.204 873.202 322.372L829.554 337.732L826.738 330.692L862.578 317.636L860.018 319.3C858.994 316.484 857.287 314.052 854.898 312.004C852.509 309.871 849.394 308.804 845.554 308.804C842.311 308.804 839.41 309.615 836.85 311.236C834.29 312.772 832.285 314.905 830.834 317.636C829.383 320.367 828.658 323.481 828.658 326.98C828.658 330.649 829.426 333.892 830.962 336.708C832.498 339.439 834.589 341.615 837.234 343.236C839.965 344.772 843.037 345.54 846.45 345.54C848.754 345.54 850.973 345.113 853.106 344.26C855.325 343.407 857.373 342.297 859.25 340.932L864.754 349.764C862.109 351.556 859.122 353.007 855.794 354.116C852.551 355.225 849.351 355.78 846.194 355.78ZM898.742 301.508L899.894 316.868L899.254 314.82C900.619 311.577 902.582 308.847 905.142 306.628C907.787 304.324 910.518 302.575 913.334 301.38C916.235 300.1 918.753 299.46 920.886 299.46L920.246 311.236C916.235 310.98 912.694 311.748 909.622 313.54C906.635 315.332 904.246 317.721 902.454 320.708C900.747 323.695 899.894 326.895 899.894 330.308V354.5H888.118V301.508H898.742ZM924.727 347.716C924.727 345.839 925.41 344.26 926.775 342.98C928.226 341.615 929.804 340.932 931.511 340.932C933.047 340.932 934.498 341.615 935.863 342.98C937.314 344.26 938.039 345.839 938.039 347.716C938.039 349.764 937.314 351.428 935.863 352.708C934.498 353.903 933.047 354.5 931.511 354.5C929.804 354.5 928.226 353.903 926.775 352.708C925.41 351.428 924.727 349.764 924.727 347.716Z" fill="url(#paint1_linear_441_117)"/>
<defs>
<linearGradient id="paint0_linear_441_117" x1="0" y1="322.5" x2="998.953" y2="322.5" gradientUnits="userSpaceOnUse">
<stop stop-color="white"/>
<stop offset="1" stop-color="#4FD1FF"/>
</linearGradient>
<linearGradient id="paint1_linear_441_117" x1="0" y1="322.5" x2="998.953" y2="322.5" gradientUnits="userSpaceOnUse">
<stop stop-color="#C25FFF"/>
<stop offset="1" stop-color="#4FD1FF"/>
</linearGradient>
</defs>
</svg>
